SubSource-HROTdd_VROTd_SLENx_SANGx.ufo
<glyph name="ampersand" format="2">
  <advance width="634"/>
  <unicode hex="0026"/>
  <outline>
    <contour>
      <point x="553" y="500" type="curve" smooth="yes"/>
      <point x="524" y="470"/>
      <point x="507" y="480"/>
      <point x="422" y="480" type="curve" smooth="yes"/>
      <point x="349" y="480"/>
      <point x="301" y="442"/>
      <point x="289" y="375" type="curve" smooth="yes"/>
      <point x="284" y="345"/>
      <point x="340" y="368"/>
      <point x="396" y="387" type="curve" smooth="yes"/>
      <point x="428" y="398"/>
      <point x="466" y="404"/>
      <point x="523" y="387" type="curve" smooth="yes"/>
      <point x="674" y="340"/>
      <point x="747" y="205"/>
      <point x="692" y="157" type="curve" smooth="yes"/>
      <point x="665" y="134"/>
      <point x="627" y="133"/>
      <point x="555" y="148" type="curve" smooth="yes"/>
      <point x="347" y="191"/>
      <point x="273" y="153"/>
      <point x="273" y="60" type="curve" smooth="yes"/>
      <point x="273" y="-2"/>
      <point x="335" y="-49"/>
      <point x="403" y="-41" type="curve" smooth="yes"/>
      <point x="477" y="-33"/>
      <point x="506" y="41"/>
      <point x="506" y="118" type="curve" smooth="yes"/>
      <point x="506" y="208"/>
      <point x="506" y="234"/>
      <point x="506" y="290" type="curve" smooth="yes"/>
      <point x="506" y="325"/>
      <point x="504" y="350"/>
      <point x="484" y="400" type="curve" smooth="yes"/>
      <point x="459" y="462"/>
      <point x="543" y="495"/>
      <point x="568" y="432" type="curve" smooth="yes"/>
      <point x="592" y="370"/>
      <point x="596" y="333"/>
      <point x="596" y="290" type="curve" smooth="yes"/>
      <point x="596" y="207"/>
      <point x="596" y="179"/>
      <point x="596" y="118" type="curve" smooth="yes"/>
      <point x="596" y="-8"/>
      <point x="534" y="-117"/>
      <point x="413" y="-131" type="curve" smooth="yes"/>
      <point x="289" y="-145"/>
      <point x="183" y="-54"/>
      <point x="183" y="60" type="curve" smooth="yes"/>
      <point x="183" y="193"/>
      <point x="275" y="298"/>
      <point x="573" y="236" type="curve" smooth="yes"/>
      <point x="576" y="235"/>
      <point x="631" y="224"/>
      <point x="632" y="225" type="curve" smooth="yes"/>
      <point x="635" y="227"/>
      <point x="503" y="299"/>
      <point x="497" y="301" type="curve" smooth="yes"/>
      <point x="462" y="312"/>
      <point x="444" y="308"/>
      <point x="426" y="303" type="curve" smooth="yes"/>
      <point x="229" y="234"/>
      <point x="182" y="283"/>
      <point x="201" y="391" type="curve" smooth="yes"/>
      <point x="219" y="498"/>
      <point x="303" y="570"/>
      <point x="422" y="570" type="curve" smooth="yes"/>
      <point x="425" y="570"/>
      <point x="486" y="561"/>
      <point x="487" y="562" type="curve" smooth="yes"/>
      <point x="533" y="611"/>
      <point x="599" y="550"/>
    </contour>
  </outline>
</glyph>
<glyph name="plus" format="2">
  <advance width="540"/>
  <unicode hex="002B"/>
  <outline>
    <contour>
      <point x="428" y="359" type="curve" smooth="yes"/>
      <point x="384" y="292"/>
      <point x="389" y="163"/>
      <point x="433" y="6" type="curve" smooth="yes"/>
      <point x="452" y="-59"/>
      <point x="365" y="-83"/>
      <point x="347" y="-18" type="curve" smooth="yes"/>
      <point x="291" y="182"/>
      <point x="296" y="323"/>
      <point x="352" y="409" type="curve" smooth="yes"/>
      <point x="389" y="465"/>
      <point x="465" y="416"/>
    </contour>
    <contour>
      <point x="605" y="151" type="curve" smooth="yes"/>
      <point x="521" y="95"/>
      <point x="384" y="89"/>
      <point x="188" y="145" type="curve" smooth="yes"/>
      <point x="123" y="163"/>
      <point x="147" y="250"/>
      <point x="212" y="231" type="curve" smooth="yes"/>
      <point x="365" y="188"/>
      <point x="490" y="182"/>
      <point x="555" y="225" type="curve" smooth="yes"/>
      <point x="611" y="263"/>
      <point x="661" y="188"/>
    </contour>
  </outline>
</glyph>
<glyph name="slash" format="2">
  <advance width="490"/>
  <unicode hex="002F"/>
  <outline>
    <contour>
      <point x="512" y="650" type="curve" smooth="yes"/>
      <point x="530" y="568"/>
      <point x="515" y="517"/>
      <point x="499" y="468" type="curve" smooth="yes"/>
      <point x="439" y="287"/>
      <point x="375" y="95"/>
      <point x="311" y="-103" type="curve" smooth="yes"/>
      <point x="288" y="-170"/>
      <point x="266" y="-225"/>
      <point x="206" y="-251" type="curve" smooth="yes"/>
      <point x="144" y="-278"/>
      <point x="108" y="-196"/>
      <point x="170" y="-169" type="curve" smooth="yes"/>
      <point x="200" y="-156"/>
      <point x="214" y="-108"/>
      <point x="225" y="-75" type="curve" smooth="yes"/>
      <point x="287" y="115"/>
      <point x="351" y="307"/>
      <point x="413" y="496" type="curve" smooth="yes"/>
      <point x="425" y="533"/>
      <point x="438" y="568"/>
      <point x="424" y="630" type="curve" smooth="yes"/>
      <point x="409" y="696"/>
      <point x="497" y="716"/>
    </contour>
  </outline>
</glyph>
<glyph name="four" format="2">
  <advance width="525"/>
  <unicode hex="0034"/>
  <outline>
    <contour>
      <point x="502" y="136" type="curve" smooth="yes"/>
      <point x="411" y="136"/>
      <point x="319" y="136"/>
      <point x="258" y="136" type="curve" smooth="yes"/>
      <point x="209" y="136"/>
      <point x="179" y="136"/>
      <point x="160" y="136" type="curve" smooth="yes"/>
      <point x="155" y="136"/>
      <point x="173" y="194"/>
      <point x="176" y="199" type="curve" smooth="yes"/>
      <point x="182" y="208"/>
      <point x="188" y="259"/>
      <point x="191" y="276" type="curve" smooth="yes"/>
      <point x="200" y="337"/>
      <point x="212" y="418"/>
      <point x="221" y="465" type="curve" smooth="yes"/>
      <point x="230" y="514"/>
      <point x="238" y="550"/>
      <point x="257" y="578" type="curve" smooth="yes"/>
      <point x="334" y="692"/>
      <point x="535" y="593"/>
      <point x="535" y="452" type="curve" smooth="yes"/>
      <point x="535" y="429"/>
      <point x="535" y="402"/>
      <point x="535" y="378" type="curve" smooth="yes"/>
      <point x="535" y="239"/>
      <point x="535" y="82"/>
      <point x="535" y="37" type="curve" smooth="yes"/>
      <point x="535" y="-40"/>
      <point x="516" y="-72"/>
      <point x="481" y="-90" type="curve" smooth="yes"/>
      <point x="421" y="-121"/>
      <point x="379" y="-41"/>
      <point x="439" y="-10" type="curve" smooth="yes"/>
      <point x="444" y="-8"/>
      <point x="445" y="26"/>
      <point x="445" y="37" type="curve" smooth="yes"/>
      <point x="445" y="104"/>
      <point x="445" y="285"/>
      <point x="445" y="378" type="curve" smooth="yes"/>
      <point x="445" y="413"/>
      <point x="445" y="436"/>
      <point x="445" y="452" type="curve" smooth="yes"/>
      <point x="445" y="500"/>
      <point x="358" y="567"/>
      <point x="331" y="528" type="curve" smooth="yes"/>
      <point x="321" y="513"/>
      <point x="314" y="475"/>
      <point x="309" y="449" type="curve" smooth="yes"/>
      <point x="300" y="402"/>
      <point x="288" y="323"/>
      <point x="279" y="262" type="curve" smooth="yes"/>
      <point x="271" y="209"/>
      <point x="269" y="178"/>
      <point x="252" y="151" type="curve" smooth="yes"/>
      <point x="159" y="2"/>
      <point x="4" y="226"/>
      <point x="160" y="226" type="curve" smooth="yes"/>
      <point x="188" y="226"/>
      <point x="225" y="226"/>
      <point x="258" y="226" type="curve" smooth="yes"/>
      <point x="349" y="226"/>
      <point x="441" y="226"/>
      <point x="502" y="226" type="curve" smooth="yes"/>
      <point x="570" y="226"/>
      <point x="570" y="136"/>
    </contour>
  </outline>
</glyph>
<glyph name="eight" format="2">
  <advance width="535"/>
  <unicode hex="0038"/>
  <outline>
    <contour>
      <point x="341" y="-148" type="curve" smooth="yes"/>
      <point x="220" y="-90"/>
      <point x="164" y="-14"/>
      <point x="155" y="88" type="curve" smooth="yes"/>
      <point x="142" y="236"/>
      <point x="167" y="374"/>
      <point x="299" y="374" type="curve" smooth="yes"/>
      <point x="341" y="374"/>
      <point x="483" y="370"/>
      <point x="492" y="400" type="curve" smooth="yes"/>
      <point x="504" y="439"/>
      <point x="442" y="479"/>
      <point x="389" y="479" type="curve" smooth="yes"/>
      <point x="323" y="479"/>
      <point x="273" y="442"/>
      <point x="276" y="378" type="curve" smooth="yes"/>
      <point x="279" y="309"/>
      <point x="351" y="254"/>
      <point x="418" y="254" type="curve" smooth="yes"/>
      <point x="545" y="254"/>
      <point x="614" y="207"/>
      <point x="610" y="81" type="curve" smooth="yes"/>
      <point x="608" y="-10"/>
      <point x="558" y="-81"/>
      <point x="507" y="-138" type="curve" smooth="yes"/>
      <point x="462" y="-188"/>
      <point x="395" y="-128"/>
      <point x="441" y="-78" type="curve" smooth="yes"/>
      <point x="477" y="-37"/>
      <point x="518" y="18"/>
      <point x="520" y="83" type="curve" smooth="yes"/>
      <point x="522" y="156"/>
      <point x="491" y="164"/>
      <point x="418" y="164" type="curve" smooth="yes"/>
      <point x="303" y="164"/>
      <point x="191" y="257"/>
      <point x="186" y="374" type="curve" smooth="yes"/>
      <point x="181" y="490"/>
      <point x="271" y="569"/>
      <point x="389" y="569" type="curve" smooth="yes"/>
      <point x="516" y="569"/>
      <point x="607" y="466"/>
      <point x="578" y="372" type="curve" smooth="yes"/>
      <point x="549" y="282"/>
      <point x="429" y="284"/>
      <point x="299" y="284" type="curve" smooth="yes"/>
      <point x="235" y="284"/>
      <point x="238" y="168"/>
      <point x="245" y="96" type="curve" smooth="yes"/>
      <point x="252" y="22"/>
      <point x="292" y="-25"/>
      <point x="379" y="-66" type="curve" smooth="yes"/>
      <point x="440" y="-96"/>
      <point x="401" y="-177"/>
    </contour>
  </outline>
</glyph>
<glyph name="colon" format="2">
  <advance width="260"/>
  <unicode hex="003A"/>
  <outline>
    <contour>
      <point x="133" y="-5" type="curve" smooth="yes"/>
      <point x="49" y="8"/>
      <point x="49" y="116"/>
      <point x="133" y="129" type="curve" smooth="yes"/>
      <point x="200" y="138"/>
      <point x="213" y="49"/>
      <point x="147" y="39" type="curve" smooth="yes"/>
      <point x="144" y="39"/>
      <point x="144" y="85"/>
      <point x="147" y="85" type="curve" smooth="yes"/>
      <point x="213" y="75"/>
      <point x="200" y="-14"/>
    </contour>
    <contour>
      <point x="133" y="355" type="curve" smooth="yes"/>
      <point x="49" y="368"/>
      <point x="49" y="476"/>
      <point x="133" y="489" type="curve" smooth="yes"/>
      <point x="200" y="498"/>
      <point x="213" y="409"/>
      <point x="147" y="399" type="curve" smooth="yes"/>
      <point x="144" y="399"/>
      <point x="144" y="445"/>
      <point x="147" y="445" type="curve" smooth="yes"/>
      <point x="213" y="435"/>
      <point x="200" y="346"/>
    </contour>
  </outline>
</glyph>
<glyph name="semicolon" format="2">
  <advance width="279"/>
  <unicode hex="003B"/>
  <outline>
    <contour>
      <point x="258" y="235" type="curve" smooth="yes"/>
      <point x="174" y="248"/>
      <point x="174" y="356"/>
      <point x="258" y="369" type="curve" smooth="yes"/>
      <point x="325" y="378"/>
      <point x="338" y="289"/>
      <point x="272" y="279" type="curve" smooth="yes"/>
      <point x="269" y="279"/>
      <point x="269" y="325"/>
      <point x="272" y="325" type="curve" smooth="yes"/>
      <point x="338" y="315"/>
      <point x="325" y="226"/>
    </contour>
    <contour>
      <point x="196" y="-211" type="curve" smooth="yes"/>
      <point x="221" y="-169"/>
      <point x="245" y="-96"/>
      <point x="219" y="-72" type="curve" smooth="yes"/>
      <point x="169" y="-27"/>
      <point x="229" y="40"/>
      <point x="279" y="-6" type="curve" smooth="yes"/>
      <point x="337" y="-58"/>
      <point x="330" y="-160"/>
      <point x="274" y="-257" type="curve" smooth="yes"/>
      <point x="240" y="-315"/>
      <point x="162" y="-270"/>
    </contour>
  </outline>
</glyph>
<glyph name="B" format="2">
  <advance width="540"/>
  <unicode hex="0042"/>
  <outline>
    <contour>
      <point x="328" y="8" type="curve" smooth="yes"/>
      <point x="400" y="-13"/>
      <point x="451" y="-31"/>
      <point x="492" y="-16" type="curve" smooth="yes"/>
      <point x="528" y="-2"/>
      <point x="544" y="33"/>
      <point x="544" y="73" type="curve" smooth="yes"/>
      <point x="544" y="124"/>
      <point x="524" y="148"/>
      <point x="469" y="169" type="curve" smooth="yes"/>
      <point x="443" y="179"/>
      <point x="431" y="182"/>
      <point x="398" y="189" type="curve" smooth="yes"/>
      <point x="224" y="223"/>
      <point x="144" y="393"/>
      <point x="285" y="393" type="curve" smooth="yes"/>
      <point x="315" y="393"/>
      <point x="333" y="392"/>
      <point x="367" y="395" type="curve" smooth="yes"/>
      <point x="417" y="398"/>
      <point x="466" y="406"/>
      <point x="494" y="432" type="curve" smooth="yes"/>
      <point x="504" y="441"/>
      <point x="414" y="464"/>
      <point x="393" y="466" type="curve" smooth="yes"/>
      <point x="371" y="468"/>
      <point x="349" y="468"/>
      <point x="325" y="469" type="curve" smooth="yes"/>
      <point x="287" y="471"/>
      <point x="290" y="466"/>
      <point x="290" y="430" type="curve" smooth="yes"/>
      <point x="290" y="287"/>
      <point x="290" y="168"/>
      <point x="290" y="72" type="curve" smooth="yes"/>
      <point x="290" y="12"/>
      <point x="285" y="-37"/>
      <point x="265" y="-76" type="curve" smooth="yes"/>
      <point x="233" y="-136"/>
      <point x="154" y="-93"/>
      <point x="185" y="-34" type="curve" smooth="yes"/>
      <point x="198" y="-9"/>
      <point x="200" y="35"/>
      <point x="200" y="72" type="curve" smooth="yes"/>
      <point x="200" y="216"/>
      <point x="200" y="334"/>
      <point x="200" y="430" type="curve" smooth="yes"/>
      <point x="200" y="521"/>
      <point x="233" y="563"/>
      <point x="329" y="559" type="curve" smooth="yes"/>
      <point x="351" y="558"/>
      <point x="375" y="558"/>
      <point x="401" y="556" type="curve" smooth="yes"/>
      <point x="568" y="541"/>
      <point x="628" y="433"/>
      <point x="556" y="366" type="curve" smooth="yes"/>
      <point x="512" y="325"/>
      <point x="450" y="310"/>
      <point x="375" y="305" type="curve" smooth="yes"/>
      <point x="337" y="302"/>
      <point x="319" y="303"/>
      <point x="285" y="303" type="curve" smooth="yes"/>
      <point x="279" y="303"/>
      <point x="407" y="279"/>
      <point x="414" y="277" type="curve" smooth="yes"/>
      <point x="455" y="270"/>
      <point x="471" y="265"/>
      <point x="501" y="253" type="curve" smooth="yes"/>
      <point x="594" y="218"/>
      <point x="634" y="160"/>
      <point x="634" y="73" type="curve" smooth="yes"/>
      <point x="634" y="-6"/>
      <point x="594" y="-74"/>
      <point x="522" y="-100" type="curve" smooth="yes"/>
      <point x="461" y="-123"/>
      <point x="412" y="-110"/>
      <point x="302" y="-78" type="curve" smooth="yes"/>
      <point x="238" y="-59"/>
      <point x="263" y="27"/>
    </contour>
  </outline>
</glyph>
<glyph name="C" format="2">
  <advance width="600"/>
  <unicode hex="0043"/>
  <outline>
    <contour>
      <point x="644" y="-28" type="curve" smooth="yes"/>
      <point x="607" y="-95"/>
      <point x="540" y="-127"/>
      <point x="473" y="-128" type="curve" smooth="yes"/>
      <point x="303" y="-129"/>
      <point x="165" y="4"/>
      <point x="165" y="220" type="curve" smooth="yes"/>
      <point x="165" y="436"/>
      <point x="307" y="569"/>
      <point x="476" y="568" type="curve"/>
      <point x="536" y="568"/>
      <point x="587" y="564"/>
      <point x="621" y="551" type="curve" smooth="yes"/>
      <point x="684" y="527"/>
      <point x="652" y="443"/>
      <point x="589" y="467" type="curve" smooth="yes"/>
      <point x="566" y="476"/>
      <point x="517" y="478"/>
      <point x="476" y="478" type="curve" smooth="yes"/>
      <point x="351" y="479"/>
      <point x="255" y="380"/>
      <point x="255" y="220" type="curve" smooth="yes"/>
      <point x="255" y="60"/>
      <point x="347" y="-39"/>
      <point x="471" y="-38" type="curve" smooth="yes"/>
      <point x="508" y="-37"/>
      <point x="545" y="-21"/>
      <point x="566" y="16" type="curve" smooth="yes"/>
      <point x="599" y="75"/>
      <point x="677" y="31"/>
    </contour>
  </outline>
</glyph>
<glyph name="D" format="2">
  <advance width="660"/>
  <unicode hex="0044"/>
  <outline>
    <contour>
      <point x="195" y="-5" type="curve" smooth="yes"/>
      <point x="198" y="-3"/>
      <point x="200" y="64"/>
      <point x="200" y="77" type="curve" smooth="yes"/>
      <point x="200" y="199"/>
      <point x="200" y="294"/>
      <point x="200" y="376" type="curve" smooth="yes"/>
      <point x="200" y="417"/>
      <point x="134" y="617"/>
      <point x="236" y="617" type="curve" smooth="yes"/>
      <point x="292" y="617"/>
      <point x="359" y="583"/>
      <point x="444" y="558" type="curve" smooth="yes"/>
      <point x="708" y="482"/>
      <point x="740" y="404"/>
      <point x="740" y="216" type="curve" smooth="yes"/>
      <point x="740" y="18"/>
      <point x="625" y="-139"/>
      <point x="419" y="-120" type="curve" smooth="yes"/>
      <point x="386" y="-116"/>
      <point x="347" y="-106"/>
      <point x="298" y="-87" type="curve" smooth="yes"/>
      <point x="236" y="-62"/>
      <point x="269" y="22"/>
      <point x="332" y="-3" type="curve" smooth="yes"/>
      <point x="369" y="-18"/>
      <point x="402" y="-28"/>
      <point x="427" y="-30" type="curve" smooth="yes"/>
      <point x="579" y="-45"/>
      <point x="650" y="71"/>
      <point x="650" y="216" type="curve" smooth="yes"/>
      <point x="650" y="370"/>
      <point x="635" y="410"/>
      <point x="420" y="472" type="curve" smooth="yes"/>
      <point x="300" y="506"/>
      <point x="276" y="527"/>
      <point x="236" y="527" type="curve" smooth="yes"/>
      <point x="228" y="527"/>
      <point x="290" y="876"/>
      <point x="290" y="376" type="curve" smooth="yes"/>
      <point x="290" y="254"/>
      <point x="290" y="159"/>
      <point x="290" y="77" type="curve" smooth="yes"/>
      <point x="290" y="-53"/>
      <point x="263" y="-71"/>
      <point x="235" y="-85" type="curve" smooth="yes"/>
      <point x="175" y="-115"/>
      <point x="135" y="-35"/>
    </contour>
  </outline>
</glyph>
<glyph name="K" format="2">
  <advance width="591"/>
  <unicode hex="004B"/>
  <outline>
    <contour>
      <point x="268" y="553" type="curve" smooth="yes"/>
      <point x="290" y="484"/>
      <point x="290" y="436"/>
      <point x="290" y="388" type="curve" smooth="yes"/>
      <point x="290" y="241"/>
      <point x="290" y="125"/>
      <point x="290" y="26" type="curve" smooth="yes"/>
      <point x="290" y="-34"/>
      <point x="275" y="-75"/>
      <point x="243" y="-94" type="curve" smooth="yes"/>
      <point x="184" y="-128"/>
      <point x="139" y="-50"/>
      <point x="197" y="-16" type="curve" smooth="yes"/>
      <point x="199" y="-15"/>
      <point x="200" y="23"/>
      <point x="200" y="26" type="curve" smooth="yes"/>
      <point x="200" y="173"/>
      <point x="200" y="289"/>
      <point x="200" y="388" type="curve" smooth="yes"/>
      <point x="200" y="428"/>
      <point x="200" y="468"/>
      <point x="182" y="527" type="curve" smooth="yes"/>
      <point x="162" y="591"/>
      <point x="248" y="618"/>
    </contour>
    <contour>
      <point x="649" y="525" type="curve" smooth="yes"/>
      <point x="625" y="457"/>
      <point x="584" y="409"/>
      <point x="531" y="372" type="curve" smooth="yes"/>
      <point x="488" y="342"/>
      <point x="393" y="286"/>
      <point x="327" y="279" type="curve" smooth="yes"/>
      <point x="318" y="278"/>
      <point x="356" y="246"/>
      <point x="363" y="240" type="curve" smooth="yes"/>
      <point x="444" y="164"/>
      <point x="589" y="26"/>
      <point x="665" y="-48" type="curve" smooth="yes"/>
      <point x="713" y="-95"/>
      <point x="649" y="-159"/>
      <point x="601" y="-112" type="curve" smooth="yes"/>
      <point x="527" y="-38"/>
      <point x="382" y="98"/>
      <point x="301" y="174" type="curve" smooth="yes"/>
      <point x="173" y="294"/>
      <point x="172" y="355"/>
      <point x="317" y="369" type="curve" smooth="yes"/>
      <point x="364" y="374"/>
      <point x="449" y="424"/>
      <point x="479" y="446" type="curve" smooth="yes"/>
      <point x="518" y="473"/>
      <point x="547" y="506"/>
      <point x="565" y="555" type="curve" smooth="yes"/>
      <point x="588" y="619"/>
      <point x="672" y="588"/>
    </contour>
  </outline>
</glyph>
<glyph name="P" format="2">
  <advance width="555"/>
  <unicode hex="0050"/>
  <outline>
    <contour>
      <point x="338" y="242" type="curve" smooth="yes"/>
      <point x="369" y="232"/>
      <point x="397" y="226"/>
      <point x="432" y="223" type="curve" smooth="yes"/>
      <point x="512" y="214"/>
      <point x="542" y="276"/>
      <point x="530" y="360" type="curve" smooth="yes"/>
      <point x="517" y="456"/>
      <point x="451" y="520"/>
      <point x="345" y="534" type="curve" smooth="yes"/>
      <point x="312" y="539"/>
      <point x="284" y="540"/>
      <point x="256" y="540" type="curve" smooth="yes"/>
      <point x="251" y="540"/>
      <point x="290" y="435"/>
      <point x="290" y="430" type="curve" smooth="yes"/>
      <point x="290" y="279"/>
      <point x="290" y="150"/>
      <point x="290" y="58" type="curve" smooth="yes"/>
      <point x="290" y="-5"/>
      <point x="288" y="-52"/>
      <point x="261" y="-87" type="curve" smooth="yes"/>
      <point x="220" y="-141"/>
      <point x="148" y="-86"/>
      <point x="189" y="-33" type="curve" smooth="yes"/>
      <point x="201" y="-18"/>
      <point x="200" y="32"/>
      <point x="200" y="58" type="curve" smooth="yes"/>
      <point x="200" y="194"/>
      <point x="200" y="329"/>
      <point x="200" y="430" type="curve" smooth="yes"/>
      <point x="200" y="552"/>
      <point x="132" y="630"/>
      <point x="256" y="630" type="curve" smooth="yes"/>
      <point x="288" y="630"/>
      <point x="320" y="629"/>
      <point x="357" y="624" type="curve" smooth="yes"/>
      <point x="505" y="604"/>
      <point x="601" y="506"/>
      <point x="620" y="372" type="curve" smooth="yes"/>
      <point x="640" y="227"/>
      <point x="561" y="118"/>
      <point x="422" y="133" type="curve" smooth="yes"/>
      <point x="381" y="138"/>
      <point x="345" y="144"/>
      <point x="308" y="158" type="curve" smooth="yes"/>
      <point x="244" y="180"/>
      <point x="274" y="265"/>
    </contour>
  </outline>
</glyph>
<glyph name="Q" format="2">
  <advance width="732"/>
  <unicode hex="0051"/>
  <outline>
    <contour>
      <point x="645" y="-173" type="curve" smooth="yes"/>
      <point x="625" y="-142"/>
      <point x="582" y="-69"/>
      <point x="543" y="-8" type="curve" smooth="yes"/>
      <point x="518" y="32"/>
      <point x="496" y="68"/>
      <point x="483" y="88" type="curve" smooth="yes"/>
      <point x="449" y="146"/>
      <point x="526" y="192"/>
      <point x="561" y="134" type="curve" smooth="yes"/>
      <point x="572" y="114"/>
      <point x="594" y="80"/>
      <point x="619" y="40" type="curve" smooth="yes"/>
      <point x="658" y="-22"/>
      <point x="701" y="-94"/>
      <point x="721" y="-125" type="curve" smooth="yes"/>
      <point x="757" y="-181"/>
      <point x="682" y="-230"/>
    </contour>
    <contour>
      <point x="519" y="-128" type="curve" smooth="yes"/>
      <point x="326" y="-148"/>
      <point x="165" y="-3"/>
      <point x="165" y="221" type="curve" smooth="yes"/>
      <point x="165" y="425"/>
      <point x="301" y="570"/>
      <point x="488" y="570" type="curve" smooth="yes"/>
      <point x="678" y="570"/>
      <point x="811" y="418"/>
      <point x="787" y="235" type="curve" smooth="yes"/>
      <point x="776" y="153"/>
      <point x="729" y="88"/>
      <point x="656" y="52" type="curve" smooth="yes"/>
      <point x="559" y="5"/>
      <point x="454" y="55"/>
      <point x="415" y="121" type="curve" smooth="yes"/>
      <point x="403" y="140"/>
      <point x="383" y="174"/>
      <point x="357" y="213" type="curve" smooth="yes"/>
      <point x="320" y="270"/>
      <point x="396" y="319"/>
      <point x="433" y="263" type="curve" smooth="yes"/>
      <point x="459" y="222"/>
      <point x="479" y="188"/>
      <point x="493" y="167" type="curve" smooth="yes"/>
      <point x="512" y="135"/>
      <point x="569" y="109"/>
      <point x="616" y="132" type="curve" smooth="yes"/>
      <point x="663" y="156"/>
      <point x="690" y="195"/>
      <point x="697" y="247" type="curve" smooth="yes"/>
      <point x="715" y="376"/>
      <point x="622" y="480"/>
      <point x="488" y="480" type="curve" smooth="yes"/>
      <point x="349" y="480"/>
      <point x="255" y="373"/>
      <point x="255" y="221" type="curve" smooth="yes"/>
      <point x="255" y="55"/>
      <point x="366" y="-54"/>
      <point x="509" y="-38" type="curve" smooth="yes"/>
      <point x="576" y="-31"/>
      <point x="586" y="-121"/>
    </contour>
  </outline>
</glyph>
<glyph name="T" format="2">
  <advance width="498"/>
  <unicode hex="0054"/>
  <outline>
    <contour>
      <point x="558" y="544" type="curve" smooth="yes"/>
      <point x="556" y="467"/>
      <point x="444" y="460"/>
      <point x="254" y="475" type="curve" smooth="yes"/>
      <point x="58" y="492"/>
      <point x="-43" y="700"/>
      <point x="136" y="682" type="curve" smooth="yes"/>
      <point x="261" y="670"/>
      <point x="414" y="499"/>
      <point x="414" y="359" type="curve" smooth="yes"/>
      <point x="414" y="252"/>
      <point x="414" y="122"/>
      <point x="414" y="71" type="curve" smooth="yes"/>
      <point x="414" y="-27"/>
      <point x="376" y="-77"/>
      <point x="316" y="-74" type="curve" smooth="yes"/>
      <point x="248" y="-70"/>
      <point x="253" y="20"/>
      <point x="320" y="16" type="curve" smooth="yes"/>
      <point x="323" y="16"/>
      <point x="324" y="66"/>
      <point x="324" y="71" type="curve" smooth="yes"/>
      <point x="324" y="147"/>
      <point x="324" y="287"/>
      <point x="324" y="359" type="curve" smooth="yes"/>
      <point x="324" y="449"/>
      <point x="209" y="584"/>
      <point x="128" y="592" type="curve" smooth="yes"/>
      <point x="119" y="593"/>
      <point x="253" y="566"/>
      <point x="262" y="565" type="curve" smooth="yes"/>
      <point x="269" y="564"/>
      <point x="468" y="543"/>
      <point x="468" y="546" type="curve" smooth="yes"/>
      <point x="470" y="614"/>
      <point x="560" y="611"/>
    </contour>
  </outline>
</glyph>
<glyph name="U" format="2">
  <advance width="668"/>
  <unicode hex="0055"/>
  <outline>
    <contour>
      <point x="246" y="569" type="curve" smooth="yes"/>
      <point x="280" y="496"/>
      <point x="280" y="423"/>
      <point x="280" y="384" type="curve" smooth="yes"/>
      <point x="280" y="276"/>
      <point x="280" y="221"/>
      <point x="280" y="148" type="curve" smooth="yes"/>
      <point x="280" y="43"/>
      <point x="351" y="-42"/>
      <point x="439" y="-30" type="curve" smooth="yes"/>
      <point x="535" y="-18"/>
      <point x="628" y="38"/>
      <point x="628" y="148" type="curve" smooth="yes"/>
      <point x="628" y="256"/>
      <point x="628" y="311"/>
      <point x="628" y="384" type="curve" smooth="yes"/>
      <point x="628" y="415"/>
      <point x="628" y="474"/>
      <point x="602" y="531" type="curve" smooth="yes"/>
      <point x="574" y="592"/>
      <point x="656" y="630"/>
      <point x="684" y="569" type="curve" smooth="yes"/>
      <point x="718" y="496"/>
      <point x="718" y="423"/>
      <point x="718" y="384" type="curve" smooth="yes"/>
      <point x="718" y="276"/>
      <point x="718" y="221"/>
      <point x="718" y="148" type="curve" smooth="yes"/>
      <point x="718" y="-12"/>
      <point x="589" y="-102"/>
      <point x="451" y="-120" type="curve" smooth="yes"/>
      <point x="313" y="-138"/>
      <point x="190" y="-17"/>
      <point x="190" y="148" type="curve" smooth="yes"/>
      <point x="190" y="256"/>
      <point x="190" y="311"/>
      <point x="190" y="384" type="curve" smooth="yes"/>
      <point x="190" y="415"/>
      <point x="190" y="474"/>
      <point x="164" y="531" type="curve" smooth="yes"/>
      <point x="136" y="592"/>
      <point x="218" y="630"/>
    </contour>
  </outline>
</glyph>
<glyph name="Y" format="2">
  <advance width="582"/>
  <unicode hex="0059"/>
  <outline>
    <contour>
      <point x="647" y="537" type="curve" smooth="yes"/>
      <point x="642" y="475"/>
      <point x="622" y="432"/>
      <point x="601" y="387" type="curve" smooth="yes"/>
      <point x="564" y="308"/>
      <point x="530" y="259"/>
      <point x="492" y="188" type="curve" smooth="yes"/>
      <point x="473" y="153"/>
      <point x="456" y="114"/>
      <point x="456" y="68" type="curve" smooth="yes"/>
      <point x="456" y="41"/>
      <point x="456" y="23"/>
      <point x="456" y="-9" type="curve" smooth="yes"/>
      <point x="456" y="-173"/>
      <point x="246" y="-56"/>
      <point x="246" y="115" type="curve" smooth="yes"/>
      <point x="246" y="155"/>
      <point x="246" y="170"/>
      <point x="246" y="189" type="curve" smooth="yes"/>
      <point x="246" y="253"/>
      <point x="263" y="271"/>
      <point x="247" y="310" type="curve" smooth="yes"/>
      <point x="227" y="360"/>
      <point x="193" y="421"/>
      <point x="140" y="519" type="curve" smooth="yes"/>
      <point x="108" y="578"/>
      <point x="188" y="621"/>
      <point x="220" y="561" type="curve" smooth="yes"/>
      <point x="277" y="455"/>
      <point x="309" y="398"/>
      <point x="331" y="344" type="curve" smooth="yes"/>
      <point x="370" y="244"/>
      <point x="336" y="349"/>
      <point x="336" y="189" type="curve" smooth="yes"/>
      <point x="336" y="161"/>
      <point x="336" y="142"/>
      <point x="336" y="115" type="curve" smooth="yes"/>
      <point x="336" y="108"/>
      <point x="366" y="-16"/>
      <point x="366" y="-9" type="curve" smooth="yes"/>
      <point x="366" y="39"/>
      <point x="366" y="50"/>
      <point x="366" y="68" type="curve" smooth="yes"/>
      <point x="366" y="131"/>
      <point x="387" y="183"/>
      <point x="412" y="230" type="curve" smooth="yes"/>
      <point x="452" y="305"/>
      <point x="484" y="350"/>
      <point x="519" y="425" type="curve" smooth="yes"/>
      <point x="536" y="460"/>
      <point x="554" y="495"/>
      <point x="557" y="543" type="curve" smooth="yes"/>
      <point x="562" y="611"/>
      <point x="652" y="604"/>
    </contour>
  </outline>
</glyph>
<glyph name="a" format="2">
  <advance width="584"/>
  <unicode hex="0061"/>
  <outline>
    <contour>
      <point x="516.4890119488285" y="466.82174280381037" type="curve" smooth="yes"/>
      <point x="550.1546939139386" y="370.3134460763706"/>
      <point x="518.999999086383" y="311.0077260419432"/>
      <point x="518.9999965273614" y="226.99999897953163" type="curve" smooth="yes"/>
      <point x="518.9999913698184" y="57.68785165872889"/>
      <point x="535.4293391825117" y="-102.90422533208812"/>
      <point x="409.4611007506277" y="-129.99416890341652" type="curve" smooth="yes"/>
      <point x="291.3013370331191" y="-155.4048706116863"/>
      <point x="158.99999281660695" y="-29.81688246297216"/>
      <point x="158.99999765444593" y="129.00000321371377" type="curve" smooth="yes"/>
      <point x="159.00000226191162" y="280.2541800486527"/>
      <point x="262.26622534445397" y="387.999998583529"/>
      <point x="399.00000120323875" y="387.999998583529" type="curve" smooth="yes"/>
      <point x="534.5237436473443" y="387.999998583529"/>
      <point x="648.9999959258694" y="272.2541774289429"/>
      <point x="648.9999913184035" y="121.00000059400396" type="curve" smooth="yes"/>
      <point x="648.9999899451022" y="75.91716657937388"/>
      <point x="648.9999882994568" y="21.89383247588414"/>
      <point x="648.9999876020711" y="-0.9999975478298623" type="curve" smooth="yes"/>
      <point x="648.9999859478754" y="-55.304038470478595"/>
      <point x="637.4360016927241" y="-93.33745700539103"/>
      <point x="604.524461087951" y="-114.72995797491936" type="curve" smooth="yes"/>
      <point x="547.9295166548297" y="-151.51667112806638"/>
      <point x="498.8805657839671" y="-76.05674521723807"/>
      <point x="555.4755102170883" y="-39.27003206409105" type="curve" smooth="yes"/>
      <point x="557.5013489858663" y="-37.953236890457944"/>
      <point x="558.9999875002486" y="-4.342628708572473"/>
      <point x="558.9999876020711" y="-0.9999948062729388" type="curve" smooth="yes"/>
      <point x="558.9999886413267" y="33.11674444804158"/>
      <point x="558.9999903968578" y="90.74744223279586"/>
      <point x="558.9999913184035" y="121.00000333556072" type="curve" smooth="yes"/>
      <point x="558.999994324072" y="219.67027550755765"/>
      <point x="487.40856506934807" y="297.999998583529"/>
      <point x="399.00000120323875" y="297.999998583529" type="curve" smooth="yes"/>
      <point x="309.757453886095" y="297.999998583529"/>
      <point x="249.00000066161783" y="227.71963246014786"/>
      <point x="248.99999765444588" y="129.00000047215698" type="curve" smooth="yes"/>
      <point x="248.99999490365227" y="38.69677296339147"/>
      <point x="323.3532737825653" y="-56.454337262840674"/>
      <point x="390.53887548921386" y="-42.00582086143819" type="curve" smooth="yes"/>
      <point x="443.5690012427868" y="-30.601492817098983"/>
      <point x="428.9999943561384" y="155.7229514439683"/>
      <point x="428.9999965273614" y="227.0000017210884" type="curve" smooth="yes"/>
      <point x="428.99999979441037" y="334.2508930307522"/>
      <point x="457.88137439223374" y="361.5831563164851"/>
      <point x="431.5109948136782" y="437.17825104291774" type="curve" smooth="yes"/>
      <point x="409.27837599300875" y="500.9117638942804"/>
      <point x="494.25639312815906" y="530.555255655173"/>
    </contour>
  </outline>
</glyph>
<glyph name="d" format="2">
  <advance width="584"/>
  <unicode hex="0064"/>
  <outline>
    <contour>
      <point x="627" y="598" type="curve" smooth="yes"/>
      <point x="640" y="551"/>
      <point x="642" y="513"/>
      <point x="635" y="470" type="curve" smooth="yes"/>
      <point x="611" y="332"/>
      <point x="519" y="378"/>
      <point x="519" y="237" type="curve" smooth="yes"/>
      <point x="519" y="67"/>
      <point x="536" y="-103"/>
      <point x="409" y="-130" type="curve" smooth="yes"/>
      <point x="291" y="-155"/>
      <point x="159" y="-30"/>
      <point x="159" y="129" type="curve" smooth="yes"/>
      <point x="159" y="280"/>
      <point x="262" y="388"/>
      <point x="399" y="388" type="curve" smooth="yes"/>
      <point x="535" y="388"/>
      <point x="649" y="272"/>
      <point x="649" y="121" type="curve" smooth="yes"/>
      <point x="649" y="76"/>
      <point x="649" y="22"/>
      <point x="649" y="-1" type="curve" smooth="yes"/>
      <point x="649" y="-42"/>
      <point x="644" y="-77"/>
      <point x="631" y="-105" type="curve" smooth="yes"/>
      <point x="604" y="-167"/>
      <point x="522" y="-131"/>
      <point x="549" y="-69" type="curve" smooth="yes"/>
      <point x="556" y="-52"/>
      <point x="559" y="-26"/>
      <point x="559" y="-1" type="curve" smooth="yes"/>
      <point x="559" y="33"/>
      <point x="559" y="91"/>
      <point x="559" y="121" type="curve" smooth="yes"/>
      <point x="559" y="220"/>
      <point x="487" y="298"/>
      <point x="399" y="298" type="curve" smooth="yes"/>
      <point x="310" y="298"/>
      <point x="249" y="228"/>
      <point x="249" y="129" type="curve" smooth="yes"/>
      <point x="249" y="39"/>
      <point x="323" y="-56"/>
      <point x="391" y="-42" type="curve" smooth="yes"/>
      <point x="443" y="-31"/>
      <point x="429" y="166"/>
      <point x="429" y="237" type="curve" smooth="yes"/>
      <point x="429" y="428"/>
      <point x="529" y="383"/>
      <point x="547" y="484" type="curve" smooth="yes"/>
      <point x="552" y="515"/>
      <point x="550" y="541"/>
      <point x="541" y="574" type="curve" smooth="yes"/>
      <point x="523" y="639"/>
      <point x="609" y="663"/>
    </contour>
  </outline>
</glyph>
<glyph name="g" format="2">
  <advance width="556"/>
  <unicode hex="0067"/>
  <outline>
    <contour>
      <point x="258" y="-175" type="curve" smooth="yes"/>
      <point x="366" y="-228"/>
      <point x="520" y="-199"/>
      <point x="520" y="-71" type="curve" smooth="yes"/>
      <point x="520" y="23"/>
      <point x="520" y="97"/>
      <point x="520" y="160" type="curve" smooth="yes"/>
      <point x="520" y="242"/>
      <point x="464" y="298"/>
      <point x="384" y="298" type="curve" smooth="yes"/>
      <point x="305" y="298"/>
      <point x="249" y="240"/>
      <point x="249" y="158" type="curve" smooth="yes"/>
      <point x="249" y="91"/>
      <point x="253" y="68"/>
      <point x="301" y="84" type="curve" smooth="yes"/>
      <point x="361" y="104"/>
      <point x="397" y="206"/>
      <point x="411" y="275" type="curve" smooth="yes"/>
      <point x="420" y="321"/>
      <point x="419" y="374"/>
      <point x="401" y="447" type="curve" smooth="yes"/>
      <point x="385" y="513"/>
      <point x="473" y="534"/>
      <point x="489" y="469" type="curve" smooth="yes"/>
      <point x="511" y="380"/>
      <point x="510" y="313"/>
      <point x="499" y="257" type="curve" smooth="yes"/>
      <point x="477" y="147"/>
      <point x="424" y="30"/>
      <point x="329" y="-2" type="curve" smooth="yes"/>
      <point x="225" y="-36"/>
      <point x="159" y="12"/>
      <point x="159" y="158" type="curve" smooth="yes"/>
      <point x="159" y="290"/>
      <point x="257" y="388"/>
      <point x="384" y="388" type="curve" smooth="yes"/>
      <point x="513" y="388"/>
      <point x="610" y="292"/>
      <point x="610" y="160" type="curve" smooth="yes"/>
      <point x="610" y="66"/>
      <point x="610" y="-8"/>
      <point x="610" y="-71" type="curve" smooth="yes"/>
      <point x="610" y="-269"/>
      <point x="387" y="-338"/>
      <point x="218" y="-257" type="curve" smooth="yes"/>
      <point x="158" y="-227"/>
      <point x="197" y="-146"/>
    </contour>
  </outline>
</glyph>
<glyph name="m" format="2">
  <advance width="828"/>
  <unicode hex="006D"/>
  <outline>
    <contour>
      <point x="242" y="386" type="curve" smooth="yes"/>
      <point x="275" y="308"/>
      <point x="276" y="262"/>
      <point x="276" y="218" type="curve" smooth="yes"/>
      <point x="276" y="186"/>
      <point x="276" y="64"/>
      <point x="276" y="8" type="curve" smooth="yes"/>
      <point x="276" y="-180"/>
      <point x="66" y="-58"/>
      <point x="66" y="130" type="curve" smooth="yes"/>
      <point x="66" y="188"/>
      <point x="66" y="232"/>
      <point x="66" y="278" type="curve" smooth="yes"/>
      <point x="66" y="435"/>
      <point x="244" y="424"/>
      <point x="415" y="387" type="curve" smooth="yes"/>
      <point x="532" y="362"/>
      <point x="583" y="317"/>
      <point x="583" y="183" type="curve" smooth="yes"/>
      <point x="583" y="137"/>
      <point x="583" y="87"/>
      <point x="583" y="55" type="curve" smooth="yes"/>
      <point x="583" y="-189"/>
      <point x="373" y="-71"/>
      <point x="373" y="175" type="curve" smooth="yes"/>
      <point x="373" y="223"/>
      <point x="373" y="239"/>
      <point x="373" y="278" type="curve" smooth="yes"/>
      <point x="373" y="435"/>
      <point x="551" y="424"/>
      <point x="722" y="387" type="curve" smooth="yes"/>
      <point x="839" y="362"/>
      <point x="890" y="317"/>
      <point x="890" y="183" type="curve" smooth="yes"/>
      <point x="890" y="137"/>
      <point x="890" y="87"/>
      <point x="890" y="55" type="curve" smooth="yes"/>
      <point x="890" y="-17"/>
      <point x="883" y="-66"/>
      <point x="835" y="-90" type="curve" smooth="yes"/>
      <point x="775" y="-120"/>
      <point x="735" y="-40"/>
      <point x="795" y="-10" type="curve" smooth="yes"/>
      <point x="799" y="-7"/>
      <point x="800" y="48"/>
      <point x="800" y="55" type="curve" smooth="yes"/>
      <point x="800" y="103"/>
      <point x="800" y="152"/>
      <point x="800" y="183" type="curve" smooth="yes"/>
      <point x="800" y="271"/>
      <point x="779" y="282"/>
      <point x="702" y="299" type="curve" smooth="yes"/>
      <point x="624" y="316"/>
      <point x="463" y="350"/>
      <point x="463" y="278" type="curve" smooth="yes"/>
      <point x="463" y="220"/>
      <point x="463" y="207"/>
      <point x="463" y="175" type="curve" smooth="yes"/>
      <point x="463" y="123"/>
      <point x="493" y="3"/>
      <point x="493" y="55" type="curve" smooth="yes"/>
      <point x="493" y="103"/>
      <point x="493" y="152"/>
      <point x="493" y="183" type="curve" smooth="yes"/>
      <point x="493" y="271"/>
      <point x="472" y="282"/>
      <point x="395" y="299" type="curve" smooth="yes"/>
      <point x="317" y="316"/>
      <point x="156" y="350"/>
      <point x="156" y="278" type="curve" smooth="yes"/>
      <point x="156" y="210"/>
      <point x="156" y="169"/>
      <point x="156" y="130" type="curve" smooth="yes"/>
      <point x="156" y="121"/>
      <point x="186" y="-1"/>
      <point x="186" y="8" type="curve" smooth="yes"/>
      <point x="186" y="92"/>
      <point x="186" y="197"/>
      <point x="186" y="218" type="curve" smooth="yes"/>
      <point x="186" y="254"/>
      <point x="187" y="288"/>
      <point x="160" y="350" type="curve" smooth="yes"/>
      <point x="133" y="412"/>
      <point x="216" y="448"/>
    </contour>
  </outline>
</glyph>
<glyph name="o" format="2">
  <advance width="577"/>
  <unicode hex="006F"/>
  <outline>
    <contour>
      <point x="312" y="-90" type="curve" smooth="yes"/>
      <point x="266" y="-87"/>
      <point x="234" y="-73"/>
      <point x="203" y="-24" type="curve" smooth="yes"/>
      <point x="180" y="13"/>
      <point x="159" y="69"/>
      <point x="159" y="129" type="curve" smooth="yes"/>
      <point x="159" y="279"/>
      <point x="266" y="388"/>
      <point x="408" y="388" type="curve" smooth="yes"/>
      <point x="551" y="388"/>
      <point x="658" y="278"/>
      <point x="658" y="129" type="curve" smooth="yes"/>
      <point x="658" y="67"/>
      <point x="645" y="10"/>
      <point x="609" y="-29" type="curve" smooth="yes"/>
      <point x="569" y="-74"/>
      <point x="518" y="-86"/>
      <point x="437" y="-90" type="curve" smooth="yes"/>
      <point x="370" y="-93"/>
      <point x="365" y="-3"/>
      <point x="433" y="0" type="curve" smooth="yes"/>
      <point x="479" y="2"/>
      <point x="520" y="5"/>
      <point x="543" y="31" type="curve" smooth="yes"/>
      <point x="563" y="53"/>
      <point x="568" y="94"/>
      <point x="568" y="129" type="curve" smooth="yes"/>
      <point x="568" y="228"/>
      <point x="503" y="298"/>
      <point x="408" y="298" type="curve" smooth="yes"/>
      <point x="314" y="298"/>
      <point x="249" y="227"/>
      <point x="249" y="129" type="curve" smooth="yes"/>
      <point x="249" y="89"/>
      <point x="264" y="49"/>
      <point x="279" y="24" type="curve" smooth="yes"/>
      <point x="292" y="3"/>
      <point x="298" y="1"/>
      <point x="318" y="0" type="curve" smooth="yes"/>
      <point x="385" y="-4"/>
      <point x="380" y="-94"/>
    </contour>
  </outline>
</glyph>
<glyph name="q" format="2">
  <advance width="584"/>
  <unicode hex="0071"/>
  <outline>
    <contour>
      <point x="451" y="-158" type="curve" smooth="yes"/>
      <point x="433" y="-98"/>
      <point x="429" y="-50"/>
      <point x="429" y="-8" type="curve" smooth="yes"/>
      <point x="429" y="44"/>
      <point x="428" y="137"/>
      <point x="434" y="218" type="curve" smooth="yes"/>
      <point x="437" y="259"/>
      <point x="448" y="299"/>
      <point x="427" y="291" type="curve" smooth="yes"/>
      <point x="363" y="267"/>
      <point x="249" y="226"/>
      <point x="249" y="128" type="curve" smooth="yes"/>
      <point x="249" y="29"/>
      <point x="310" y="-41"/>
      <point x="399" y="-41" type="curve" smooth="yes"/>
      <point x="487" y="-41"/>
      <point x="549" y="29"/>
      <point x="549" y="128" type="curve" smooth="yes"/>
      <point x="549" y="212"/>
      <point x="549" y="279"/>
      <point x="531" y="346" type="curve" smooth="yes"/>
      <point x="513" y="411"/>
      <point x="599" y="435"/>
      <point x="617" y="370" type="curve" smooth="yes"/>
      <point x="639" y="293"/>
      <point x="639" y="224"/>
      <point x="639" y="128" type="curve" smooth="yes"/>
      <point x="639" y="-23"/>
      <point x="535" y="-131"/>
      <point x="399" y="-131" type="curve" smooth="yes"/>
      <point x="262" y="-131"/>
      <point x="159" y="-23"/>
      <point x="159" y="128" type="curve" smooth="yes"/>
      <point x="159" y="278"/>
      <point x="297" y="338"/>
      <point x="393" y="375" type="curve" smooth="yes"/>
      <point x="501" y="417"/>
      <point x="540" y="419"/>
      <point x="524" y="212" type="curve" smooth="yes"/>
      <point x="518" y="133"/>
      <point x="519" y="42"/>
      <point x="519" y="-8" type="curve" smooth="yes"/>
      <point x="519" y="-44"/>
      <point x="523" y="-82"/>
      <point x="537" y="-132" type="curve" smooth="yes"/>
      <point x="556" y="-197"/>
      <point x="470" y="-222"/>
    </contour>
  </outline>
</glyph>
<glyph name="t" format="2">
  <advance width="336"/>
  <unicode hex="0074"/>
  <outline>
    <contour>
      <point x="230" y="-11" type="curve" smooth="yes"/>
      <point x="237" y="-7"/>
      <point x="238" y="25"/>
      <point x="238" y="45" type="curve" smooth="yes"/>
      <point x="238" y="178"/>
      <point x="238" y="245"/>
      <point x="238" y="343" type="curve" smooth="yes"/>
      <point x="238" y="391"/>
      <point x="235" y="428"/>
      <point x="226" y="472" type="curve" smooth="yes"/>
      <point x="212" y="538"/>
      <point x="300" y="556"/>
      <point x="314" y="490" type="curve" smooth="yes"/>
      <point x="325" y="440"/>
      <point x="328" y="397"/>
      <point x="328" y="343" type="curve" smooth="yes"/>
      <point x="328" y="197"/>
      <point x="328" y="134"/>
      <point x="328" y="45" type="curve" smooth="yes"/>
      <point x="328" y="-43"/>
      <point x="307" y="-70"/>
      <point x="276" y="-89" type="curve" smooth="yes"/>
      <point x="218" y="-123"/>
      <point x="172" y="-46"/>
    </contour>
    <contour>
      <point x="354" y="333" type="curve" smooth="yes"/>
      <point x="329" y="333"/>
      <point x="300" y="341"/>
      <point x="261" y="356" type="curve" smooth="yes"/>
      <point x="256" y="358"/>
      <point x="208" y="382"/>
      <point x="207" y="380" type="curve" smooth="yes"/>
      <point x="197" y="356"/>
      <point x="175" y="333"/>
      <point x="132" y="333" type="curve" smooth="yes"/>
      <point x="65" y="333"/>
      <point x="65" y="423"/>
      <point x="132" y="423" type="curve" smooth="yes"/>
      <point x="134" y="423"/>
      <point x="124" y="414"/>
      <point x="125" y="416" type="curve" smooth="yes"/>
      <point x="143" y="459"/>
      <point x="192" y="479"/>
      <point x="293" y="440" type="curve" smooth="yes"/>
      <point x="315" y="432"/>
      <point x="340" y="423"/>
      <point x="354" y="423" type="curve" smooth="yes"/>
      <point x="422" y="423"/>
      <point x="422" y="333"/>
    </contour>
  </outline>
</glyph>
<glyph name="exclamdown" format="2">
  <advance width="261"/>
  <unicode hex="00A1"/>
  <outline>
    <contour>
      <point x="177" y="295" type="curve" smooth="yes"/>
      <point x="177" y="-60" type="line" smooth="yes"/>
      <point x="177" y="-128"/>
      <point x="87" y="-127"/>
      <point x="87" y="-60" type="curve" smooth="yes"/>
      <point x="87" y="295" type="line" smooth="yes"/>
      <point x="87" y="363"/>
      <point x="177" y="363"/>
    </contour>
    <contour>
      <point x="133" y="451" type="curve" smooth="yes"/>
      <point x="49" y="464"/>
      <point x="49" y="572"/>
      <point x="133" y="585" type="curve" smooth="yes"/>
      <point x="200" y="594"/>
      <point x="213" y="505"/>
      <point x="147" y="495" type="curve" smooth="yes"/>
      <point x="144" y="495"/>
      <point x="144" y="541"/>
      <point x="147" y="541" type="curve" smooth="yes"/>
      <point x="213" y="531"/>
      <point x="200" y="442"/>
    </contour>
  </outline>
</glyph>
<glyph name="yen" format="2">
  <advance width="599"/>
  <unicode hex="00A5"/>
  <outline>
    <contour>
      <point x="533" y="85" type="curve" smooth="yes"/>
      <point x="431" y="53"/>
      <point x="296" y="52"/>
      <point x="131" y="84" type="curve" smooth="yes"/>
      <point x="65" y="97"/>
      <point x="82" y="185"/>
      <point x="149" y="172" type="curve" smooth="yes"/>
      <point x="293" y="144"/>
      <point x="417" y="143"/>
      <point x="505" y="171" type="curve" smooth="yes"/>
      <point x="570" y="191"/>
      <point x="597" y="105"/>
    </contour>
    <contour>
      <point x="666" y="491" type="curve" smooth="yes"/>
      <point x="615" y="431"/>
      <point x="523" y="360"/>
      <point x="457" y="329" type="curve" smooth="yes"/>
      <point x="353" y="280"/>
      <point x="339" y="253"/>
      <point x="245" y="253" type="curve" smooth="yes"/>
      <point x="191" y="253"/>
      <point x="165" y="253"/>
      <point x="130" y="253" type="curve" smooth="yes"/>
      <point x="63" y="253"/>
      <point x="63" y="343"/>
      <point x="130" y="343" type="curve" smooth="yes"/>
      <point x="182" y="343"/>
      <point x="209" y="343"/>
      <point x="245" y="343" type="curve" smooth="yes"/>
      <point x="313" y="343"/>
      <point x="343" y="375"/>
      <point x="419" y="411" type="curve" smooth="yes"/>
      <point x="473" y="436"/>
      <point x="555" y="499"/>
      <point x="596" y="549" type="curve" smooth="yes"/>
      <point x="640" y="601"/>
      <point x="709" y="543"/>
    </contour>
    <contour>
      <point x="247" y="545" type="curve" smooth="yes"/>
      <point x="270" y="509"/>
      <point x="296" y="470"/>
      <point x="321" y="433" type="curve" smooth="yes"/>
      <point x="359" y="376"/>
      <point x="395" y="319"/>
      <point x="421" y="278" type="curve" smooth="yes"/>
      <point x="464" y="209"/>
      <point x="465" y="179"/>
      <point x="465" y="103" type="curve" smooth="yes"/>
      <point x="465" y="29"/>
      <point x="465" y="-30"/>
      <point x="465" y="-80" type="curve" smooth="yes"/>
      <point x="465" y="-147"/>
      <point x="375" y="-147"/>
      <point x="375" y="-80" type="curve" smooth="yes"/>
      <point x="375" y="-6"/>
      <point x="375" y="53"/>
      <point x="375" y="103" type="curve" smooth="yes"/>
      <point x="375" y="161"/>
      <point x="378" y="177"/>
      <point x="345" y="230" type="curve" smooth="yes"/>
      <point x="319" y="271"/>
      <point x="283" y="326"/>
      <point x="245" y="383" type="curve" smooth="yes"/>
      <point x="220" y="421"/>
      <point x="194" y="460"/>
      <point x="171" y="495" type="curve" smooth="yes"/>
      <point x="134" y="552"/>
      <point x="210" y="601"/>
    </contour>
    <contour>
      <point x="417" y="320" type="curve" smooth="yes"/>
      <point x="471" y="299"/>
      <point x="509" y="289"/>
      <point x="530" y="299" type="curve" smooth="yes"/>
      <point x="592" y="327"/>
      <point x="629" y="245"/>
      <point x="568" y="217" type="curve" smooth="yes"/>
      <point x="529" y="199"/>
      <point x="483" y="198"/>
      <point x="385" y="236" type="curve" smooth="yes"/>
      <point x="322" y="260"/>
      <point x="354" y="344"/>
    </contour>
  </outline>
</glyph>
<glyph name="section" format="2">
  <advance width="505"/>
  <unicode hex="00A7"/>
  <outline>
    <contour>
      <point x="501" y="488" type="curve" smooth="yes"/>
      <point x="470" y="475"/>
      <point x="439" y="480"/>
      <point x="386" y="480" type="curve" smooth="yes"/>
      <point x="333" y="480"/>
      <point x="296" y="464"/>
      <point x="302" y="422" type="curve" smooth="yes"/>
      <point x="309" y="367"/>
      <point x="377" y="340"/>
      <point x="436" y="312" type="curve" smooth="yes"/>
      <point x="541" y="262"/>
      <point x="628" y="215"/>
      <point x="628" y="120" type="curve" smooth="yes"/>
      <point x="628" y="40"/>
      <point x="555" y="-30"/>
      <point x="423" y="-33" type="curve" smooth="yes"/>
      <point x="355" y="-34"/>
      <point x="354" y="56"/>
      <point x="421" y="57" type="curve" smooth="yes"/>
      <point x="484" y="58"/>
      <point x="538" y="82"/>
      <point x="538" y="120" type="curve" smooth="yes"/>
      <point x="538" y="167"/>
      <point x="449" y="206"/>
      <point x="398" y="230" type="curve" smooth="yes"/>
      <point x="296" y="279"/>
      <point x="225" y="316"/>
      <point x="212" y="410" type="curve" smooth="yes"/>
      <point x="200" y="504"/>
      <point x="269" y="570"/>
      <point x="386" y="570" type="curve" smooth="yes"/>
      <point x="404" y="570"/>
      <point x="456" y="567"/>
      <point x="467" y="572" type="curve" smooth="yes"/>
      <point x="529" y="597"/>
      <point x="564" y="514"/>
    </contour>
    <contour>
      <point x="227" y="-78" type="curve" smooth="yes"/>
      <point x="287" y="-111"/>
      <point x="336" y="-127"/>
      <point x="370" y="-127" type="curve" smooth="yes"/>
      <point x="426" y="-127"/>
      <point x="431" y="-74"/>
      <point x="425" y="-35" type="curve" smooth="yes"/>
      <point x="417" y="13"/>
      <point x="348" y="33"/>
      <point x="299" y="51" type="curve" smooth="yes"/>
      <point x="199" y="86"/>
      <point x="116" y="126"/>
      <point x="116" y="223" type="curve" smooth="yes"/>
      <point x="116" y="300"/>
      <point x="184" y="369"/>
      <point x="274" y="408" type="curve" smooth="yes"/>
      <point x="336" y="435"/>
      <point x="372" y="353"/>
      <point x="310" y="326" type="curve" smooth="yes"/>
      <point x="263" y="305"/>
      <point x="206" y="263"/>
      <point x="206" y="223" type="curve" smooth="yes"/>
      <point x="206" y="176"/>
      <point x="281" y="153"/>
      <point x="329" y="135" type="curve" smooth="yes"/>
      <point x="423" y="102"/>
      <point x="499" y="70"/>
      <point x="513" y="-21" type="curve" smooth="yes"/>
      <point x="527" y="-107"/>
      <point x="493" y="-217"/>
      <point x="370" y="-217" type="curve" smooth="yes"/>
      <point x="324" y="-217"/>
      <point x="264" y="-201"/>
      <point x="183" y="-156" type="curve" smooth="yes"/>
      <point x="124" y="-124"/>
      <point x="168" y="-45"/>
    </contour>
  </outline>
</glyph>
<glyph name="ordfeminine" format="2">
  <advance width="495"/>
  <unicode hex="00AA"/>
  <outline>
    <contour>
      <point x="532" y="47" type="curve" smooth="yes"/>
      <point x="475" y="-13"/>
      <point x="369" y="-25"/>
      <point x="192" y="35" type="curve" smooth="yes"/>
      <point x="128" y="57"/>
      <point x="157" y="142"/>
      <point x="220" y="121" type="curve" smooth="yes"/>
      <point x="332" y="83"/>
      <point x="430" y="71"/>
      <point x="466" y="109" type="curve" smooth="yes"/>
      <point x="512" y="158"/>
      <point x="578" y="96"/>
    </contour>
    <contour>
      <point x="551" y="522" type="curve" smooth="yes"/>
      <point x="551" y="474"/>
      <point x="551" y="428"/>
      <point x="551" y="375" type="curve" smooth="yes"/>
      <point x="551" y="263"/>
      <point x="472" y="185"/>
      <point x="367" y="185" type="curve" smooth="yes"/>
      <point x="261" y="185"/>
      <point x="181" y="267"/>
      <point x="181" y="378" type="curve" smooth="yes"/>
      <point x="181" y="486"/>
      <point x="269" y="536"/>
      <point x="333" y="574" type="curve" smooth="yes"/>
      <point x="408" y="620"/>
      <point x="431" y="643"/>
      <point x="431" y="501" type="curve" smooth="yes"/>
      <point x="431" y="410"/>
      <point x="431" y="383"/>
      <point x="431" y="354" type="curve" smooth="yes"/>
      <point x="431" y="287"/>
      <point x="341" y="287"/>
      <point x="341" y="354" type="curve" smooth="yes"/>
      <point x="341" y="398"/>
      <point x="341" y="440"/>
      <point x="341" y="501" type="curve" smooth="yes"/>
      <point x="341" y="507"/>
      <point x="383" y="499"/>
      <point x="379" y="496" type="curve" smooth="yes"/>
      <point x="342" y="474"/>
      <point x="271" y="440"/>
      <point x="271" y="378" type="curve" smooth="yes"/>
      <point x="271" y="318"/>
      <point x="309" y="275"/>
      <point x="367" y="275" type="curve" smooth="yes"/>
      <point x="424" y="275"/>
      <point x="461" y="315"/>
      <point x="461" y="375" type="curve" smooth="yes"/>
      <point x="461" y="454"/>
      <point x="461" y="490"/>
      <point x="461" y="522" type="curve" smooth="yes"/>
      <point x="461" y="590"/>
      <point x="551" y="590"/>
    </contour>
  </outline>
</glyph>
<glyph name="guillemetleft" format="2">
  <advance width="637"/>
  <unicode hex="00AB"/>
  <outline>
    <contour>
      <point x="429" y="305" type="curve" smooth="yes"/>
      <point x="374" y="253"/>
      <point x="282" y="260"/>
      <point x="240" y="218" type="curve" smooth="yes"/>
      <point x="202" y="181"/>
      <point x="235" y="168"/>
      <point x="288" y="116" type="curve" smooth="yes"/>
      <point x="373" y="34"/>
      <point x="384" y="19"/>
      <point x="397" y="8" type="curve" smooth="yes"/>
      <point x="449" y="-36"/>
      <point x="390" y="-104"/>
      <point x="339" y="-60" type="curve" smooth="yes"/>
      <point x="324" y="-47"/>
      <point x="301" y="-20"/>
      <point x="226" y="52" type="curve" smooth="yes"/>
      <point x="113" y="160"/>
      <point x="99" y="206"/>
      <point x="176" y="282" type="curve" smooth="yes"/>
      <point x="243" y="348"/>
      <point x="332" y="337"/>
      <point x="367" y="371" type="curve" smooth="yes"/>
      <point x="416" y="417"/>
      <point x="478" y="352"/>
    </contour>
    <contour>
      <point x="689" y="305" type="curve" smooth="yes"/>
      <point x="634" y="253"/>
      <point x="542" y="260"/>
      <point x="500" y="218" type="curve" smooth="yes"/>
      <point x="462" y="181"/>
      <point x="495" y="168"/>
      <point x="548" y="116" type="curve" smooth="yes"/>
      <point x="634" y="33"/>
      <point x="644" y="19"/>
      <point x="657" y="8" type="curve" smooth="yes"/>
      <point x="709" y="-36"/>
      <point x="650" y="-104"/>
      <point x="599" y="-60" type="curve" smooth="yes"/>
      <point x="584" y="-47"/>
      <point x="560" y="-21"/>
      <point x="486" y="52" type="curve" smooth="yes"/>
      <point x="373" y="160"/>
      <point x="359" y="206"/>
      <point x="436" y="282" type="curve" smooth="yes"/>
      <point x="503" y="348"/>
      <point x="592" y="337"/>
      <point x="627" y="371" type="curve" smooth="yes"/>
      <point x="676" y="417"/>
      <point x="738" y="352"/>
    </contour>
  </outline>
</glyph>
<glyph name="registered" format="2">
  <advance width="644"/>
  <unicode hex="00AE"/>
  <outline>
    <contour>
      <point x="338" y="26" type="curve" smooth="yes"/>
      <point x="234" y="36"/>
      <point x="153" y="133"/>
      <point x="153" y="278" type="curve" smooth="yes"/>
      <point x="153" y="445"/>
      <point x="275" y="569"/>
      <point x="442" y="569" type="curve" smooth="yes"/>
      <point x="609" y="569"/>
      <point x="731" y="445"/>
      <point x="731" y="278" type="curve" smooth="yes"/>
      <point x="731" y="139"/>
      <point x="636" y="38"/>
      <point x="488" y="27" type="curve" smooth="yes"/>
      <point x="421" y="22"/>
      <point x="414" y="112"/>
      <point x="482" y="117" type="curve" smooth="yes"/>
      <point x="580" y="124"/>
      <point x="641" y="185"/>
      <point x="641" y="278" type="curve" smooth="yes"/>
      <point x="641" y="395"/>
      <point x="559" y="479"/>
      <point x="442" y="479" type="curve" smooth="yes"/>
      <point x="325" y="479"/>
      <point x="243" y="395"/>
      <point x="243" y="278" type="curve" smooth="yes"/>
      <point x="243" y="190"/>
      <point x="283" y="122"/>
      <point x="346" y="116" type="curve" smooth="yes"/>
      <point x="413" y="109"/>
      <point x="405" y="20"/>
    </contour>
    <contour>
      <point x="326" y="181" type="curve" smooth="yes"/>
      <point x="326" y="230"/>
      <point x="326" y="268"/>
      <point x="326" y="302" type="curve" smooth="yes"/>
      <point x="326" y="389"/>
      <point x="368" y="424"/>
      <point x="437" y="424" type="curve" smooth="yes"/>
      <point x="505" y="424"/>
      <point x="569" y="363"/>
      <point x="579" y="299" type="curve" smooth="yes"/>
      <point x="589" y="223"/>
      <point x="541" y="192"/>
      <point x="493" y="190" type="curve" smooth="yes"/>
      <point x="349" y="182"/>
      <point x="306" y="349"/>
      <point x="349" y="374" type="curve" smooth="yes"/>
      <point x="371" y="386"/>
      <point x="390" y="423"/>
      <point x="563" y="209" type="curve" smooth="yes"/>
      <point x="605" y="157"/>
      <point x="536" y="100"/>
      <point x="493" y="153" type="curve" smooth="yes"/>
      <point x="485" y="163"/>
      <point x="395" y="297"/>
      <point x="395" y="296" type="curve" smooth="yes"/>
      <point x="394" y="295"/>
      <point x="484" y="280"/>
      <point x="489" y="280" type="curve" smooth="yes"/>
      <point x="492" y="280"/>
      <point x="490" y="284"/>
      <point x="489" y="287" type="curve" smooth="yes"/>
      <point x="487" y="307"/>
      <point x="459" y="334"/>
      <point x="437" y="334" type="curve" smooth="yes"/>
      <point x="416" y="334"/>
      <point x="416" y="329"/>
      <point x="416" y="302" type="curve" smooth="yes"/>
      <point x="416" y="252"/>
      <point x="416" y="214"/>
      <point x="416" y="181" type="curve" smooth="yes"/>
      <point x="416" y="114"/>
      <point x="326" y="114"/>
    </contour>
  </outline>
</glyph>
<glyph name="twosuperior" format="2">
  <advance width="431"/>
  <unicode hex="00B2"/>
  <outline>
    <contour>
      <point x="458" y="172" type="curve" smooth="yes"/>
      <point x="430" y="159"/>
      <point x="396" y="155"/>
      <point x="356" y="155" type="curve" smooth="yes"/>
      <point x="197" y="155"/>
      <point x="82" y="298"/>
      <point x="201" y="394" type="curve" smooth="yes"/>
      <point x="292" y="467"/>
      <point x="381" y="470"/>
      <point x="408" y="483" type="curve" smooth="yes"/>
      <point x="412" y="485"/>
      <point x="263" y="466"/>
      <point x="256" y="461" type="curve" smooth="yes"/>
      <point x="198" y="427"/>
      <point x="152" y="504"/>
      <point x="210" y="539" type="curve" smooth="yes"/>
      <point x="382" y="641"/>
      <point x="553" y="455"/>
      <point x="448" y="403" type="curve" smooth="yes"/>
      <point x="414" y="386"/>
      <point x="328" y="381"/>
      <point x="257" y="324" type="curve" smooth="yes"/>
      <point x="211" y="287"/>
      <point x="294" y="245"/>
      <point x="356" y="245" type="curve" smooth="yes"/>
      <point x="379" y="245"/>
      <point x="405" y="247"/>
      <point x="420" y="254" type="curve" smooth="yes"/>
      <point x="482" y="282"/>
      <point x="519" y="200"/>
    </contour>
  </outline>
</glyph>
<glyph name="threesuperior" format="2">
  <advance width="419"/>
  <unicode hex="00B3"/>
  <outline>
    <contour>
      <point x="246" y="255" type="curve" smooth="yes"/>
      <point x="304" y="233"/>
      <point x="396" y="234"/>
      <point x="396" y="279" type="curve" smooth="yes"/>
      <point x="396" y="291"/>
      <point x="391" y="300"/>
      <point x="378" y="306" type="curve" smooth="yes"/>
      <point x="365" y="313"/>
      <point x="346" y="319"/>
      <point x="320" y="320" type="curve" smooth="yes"/>
      <point x="236" y="325"/>
      <point x="125" y="448"/>
      <point x="160" y="540" type="curve" smooth="yes"/>
      <point x="171" y="570"/>
      <point x="209" y="607"/>
      <point x="264" y="616" type="curve" smooth="yes"/>
      <point x="391" y="634"/>
      <point x="519" y="470"/>
      <point x="370" y="470" type="curve" smooth="yes"/>
      <point x="304" y="470"/>
      <point x="264" y="470"/>
      <point x="232" y="470" type="curve" smooth="yes"/>
      <point x="165" y="470"/>
      <point x="165" y="560"/>
      <point x="232" y="560" type="curve" smooth="yes"/>
      <point x="280" y="560"/>
      <point x="326" y="560"/>
      <point x="370" y="560" type="curve" smooth="yes"/>
      <point x="375" y="560"/>
      <point x="282" y="527"/>
      <point x="278" y="526" type="curve" smooth="yes"/>
      <point x="266" y="525"/>
      <point x="247" y="515"/>
      <point x="244" y="508" type="curve" smooth="yes"/>
      <point x="233" y="479"/>
      <point x="298" y="411"/>
      <point x="326" y="410" type="curve" smooth="yes"/>
      <point x="366" y="407"/>
      <point x="397" y="397"/>
      <point x="420" y="386" type="curve" smooth="yes"/>
      <point x="465" y="363"/>
      <point x="486" y="321"/>
      <point x="486" y="279" type="curve" smooth="yes"/>
      <point x="486" y="171"/>
      <point x="353" y="119"/>
      <point x="214" y="171" type="curve" smooth="yes"/>
      <point x="151" y="195"/>
      <point x="183" y="279"/>
    </contour>
  </outline>
</glyph>
<glyph name="paragraph" format="2">
  <advance width="778"/>
  <unicode hex="00B6"/>
  <outline>
    <contour>
      <point x="684" y="-19" type="curve" smooth="yes"/>
      <point x="707" y="6"/>
      <point x="701" y="315"/>
      <point x="701" y="411" type="curve" smooth="yes"/>
      <point x="701" y="470"/>
      <point x="582" y="603"/>
      <point x="523" y="583" type="curve" smooth="yes"/>
      <point x="483" y="568"/>
      <point x="483" y="500"/>
      <point x="406" y="473" type="curve" smooth="yes"/>
      <point x="349" y="452"/>
      <point x="257" y="418"/>
      <point x="257" y="344" type="curve" smooth="yes"/>
      <point x="257" y="300"/>
      <point x="300" y="227"/>
      <point x="322" y="243" type="curve" smooth="yes"/>
      <point x="352" y="264"/>
      <point x="351" y="330"/>
      <point x="351" y="383" type="curve" smooth="yes"/>
      <point x="351" y="445"/>
      <point x="351" y="450"/>
      <point x="351" y="494" type="curve" smooth="yes"/>
      <point x="351" y="658"/>
      <point x="561" y="538"/>
      <point x="561" y="372" type="curve" smooth="yes"/>
      <point x="561" y="156"/>
      <point x="571" y="-15"/>
      <point x="520" y="-77" type="curve" smooth="yes"/>
      <point x="477" y="-130"/>
      <point x="407" y="-73"/>
      <point x="450" y="-21" type="curve" smooth="yes"/>
      <point x="478" y="14"/>
      <point x="471" y="253"/>
      <point x="471" y="372" type="curve" smooth="yes"/>
      <point x="471" y="379"/>
      <point x="441" y="501"/>
      <point x="441" y="494" type="curve" smooth="yes"/>
      <point x="441" y="428"/>
      <point x="441" y="425"/>
      <point x="441" y="383" type="curve" smooth="yes"/>
      <point x="441" y="280"/>
      <point x="434" y="212"/>
      <point x="374" y="169" type="curve" smooth="yes"/>
      <point x="299" y="117"/>
      <point x="167" y="196"/>
      <point x="167" y="344" type="curve" smooth="yes"/>
      <point x="167" y="468"/>
      <point x="280" y="522"/>
      <point x="376" y="557" type="curve" smooth="yes"/>
      <point x="416" y="572"/>
      <point x="416" y="640"/>
      <point x="493" y="667" type="curve" smooth="yes"/>
      <point x="615" y="710"/>
      <point x="791" y="533"/>
      <point x="791" y="411" type="curve" smooth="yes"/>
      <point x="791" y="187"/>
      <point x="803" y="-25"/>
      <point x="748" y="-81" type="curve" smooth="yes"/>
      <point x="701" y="-130"/>
      <point x="637" y="-67"/>
    </contour>
  </outline>
</glyph>
<glyph name="cedilla" format="2">
  <advance width="416"/>
  <unicode hex="00B8"/>
  <outline>
    <contour>
      <point x="349" y="-82" type="curve" smooth="yes"/>
      <point x="349" y="-110"/>
      <point x="345" y="-141"/>
      <point x="368" y="-148" type="curve" smooth="yes"/>
      <point x="430" y="-165"/>
      <point x="451" y="-208"/>
      <point x="451" y="-252" type="curve" smooth="yes"/>
      <point x="451" y="-333"/>
      <point x="381" y="-412"/>
      <point x="170" y="-315" type="curve" smooth="yes"/>
      <point x="109" y="-287"/>
      <point x="146" y="-205"/>
      <point x="208" y="-233" type="curve" smooth="yes"/>
      <point x="293" y="-272"/>
      <point x="361" y="-285"/>
      <point x="361" y="-252" type="curve" smooth="yes"/>
      <point x="361" y="-241"/>
      <point x="359" y="-239"/>
      <point x="342" y="-234" type="curve" smooth="yes"/>
      <point x="274" y="-214"/>
      <point x="259" y="-166"/>
      <point x="259" y="-82" type="curve" smooth="yes"/>
      <point x="259" y="-14"/>
      <point x="349" y="-15"/>
    </contour>
  </outline>
</glyph>
<glyph name="onesuperior" format="2">
  <advance width="338"/>
  <unicode hex="00B9"/>
  <outline>
    <contour>
      <point x="191" y="541" type="curve" smooth="yes"/>
      <point x="345" y="574"/>
      <point x="325" y="555"/>
      <point x="325" y="462" type="curve" smooth="yes"/>
      <point x="325" y="386"/>
      <point x="355" y="276"/>
      <point x="355" y="191" type="curve" smooth="yes"/>
      <point x="355" y="124"/>
      <point x="265" y="124"/>
      <point x="265" y="191" type="curve" smooth="yes"/>
      <point x="265" y="266"/>
      <point x="235" y="376"/>
      <point x="235" y="462" type="curve" smooth="yes"/>
      <point x="235" y="467"/>
      <point x="218" y="455"/>
      <point x="209" y="453" type="curve" smooth="yes"/>
      <point x="143" y="439"/>
      <point x="125" y="527"/>
    </contour>
  </outline>
</glyph>
<glyph name="ordmasculine" format="2">
  <advance width="492"/>
  <unicode hex="00BA"/>
  <outline>
    <contour>
      <point x="520" y="49" type="curve" smooth="yes"/>
      <point x="469" y="-13"/>
      <point x="366" y="-26"/>
      <point x="191" y="36" type="curve" smooth="yes"/>
      <point x="127" y="58"/>
      <point x="157" y="143"/>
      <point x="221" y="120" type="curve" smooth="yes"/>
      <point x="324" y="84"/>
      <point x="421" y="71"/>
      <point x="452" y="107" type="curve" smooth="yes"/>
      <point x="495" y="159"/>
      <point x="564" y="101"/>
    </contour>
    <contour>
      <point x="379" y="329" type="curve" smooth="yes"/>
      <point x="413" y="336"/>
      <point x="457" y="352"/>
      <point x="461" y="384" type="curve" smooth="yes"/>
      <point x="467" y="433"/>
      <point x="420" y="480"/>
      <point x="366" y="480" type="curve" smooth="yes"/>
      <point x="309" y="480"/>
      <point x="276" y="427"/>
      <point x="271" y="373" type="curve" smooth="yes"/>
      <point x="269" y="353"/>
      <point x="265" y="332"/>
      <point x="278" y="327" type="curve" smooth="yes"/>
      <point x="342" y="305"/>
      <point x="312" y="220"/>
      <point x="248" y="243" type="curve" smooth="yes"/>
      <point x="193" y="262"/>
      <point x="172" y="301"/>
      <point x="181" y="383" type="curve" smooth="yes"/>
      <point x="192" y="481"/>
      <point x="260" y="570"/>
      <point x="366" y="570" type="curve" smooth="yes"/>
      <point x="476" y="570"/>
      <point x="563" y="473"/>
      <point x="551" y="372" type="curve" smooth="yes"/>
      <point x="541" y="298"/>
      <point x="477" y="257"/>
      <point x="397" y="241" type="curve" smooth="yes"/>
      <point x="331" y="227"/>
      <point x="313" y="315"/>
    </contour>
  </outline>
</glyph>
<glyph name="guillemetright" format="2">
  <advance width="637"/>
  <unicode hex="00BB"/>
  <outline>
    <contour>
      <point x="443" y="18" type="curve" smooth="yes"/>
      <point x="499" y="28"/>
      <point x="556" y="38"/>
      <point x="578" y="97" type="curve" smooth="yes"/>
      <point x="602" y="165"/>
      <point x="584" y="174"/>
      <point x="540" y="215" type="curve" smooth="yes"/>
      <point x="485" y="267"/>
      <point x="492" y="264"/>
      <point x="449" y="305" type="curve" smooth="yes"/>
      <point x="400" y="352"/>
      <point x="462" y="417"/>
      <point x="511" y="371" type="curve" smooth="yes"/>
      <point x="556" y="328"/>
      <point x="549" y="331"/>
      <point x="602" y="281" type="curve" smooth="yes"/>
      <point x="671" y="215"/>
      <point x="701" y="174"/>
      <point x="662" y="67" type="curve" smooth="yes"/>
      <point x="628" y="-29"/>
      <point x="548" y="-56"/>
      <point x="457" y="-70" type="curve" smooth="yes"/>
      <point x="391" y="-81"/>
      <point x="376" y="8"/>
    </contour>
    <contour>
      <point x="183" y="18" type="curve" smooth="yes"/>
      <point x="239" y="28"/>
      <point x="296" y="38"/>
      <point x="318" y="97" type="curve" smooth="yes"/>
      <point x="342" y="165"/>
      <point x="324" y="174"/>
      <point x="280" y="215" type="curve" smooth="yes"/>
      <point x="225" y="268"/>
      <point x="232" y="264"/>
      <point x="189" y="305" type="curve" smooth="yes"/>
      <point x="140" y="352"/>
      <point x="202" y="417"/>
      <point x="251" y="371" type="curve" smooth="yes"/>
      <point x="296" y="328"/>
      <point x="289" y="332"/>
      <point x="342" y="281" type="curve" smooth="yes"/>
      <point x="411" y="215"/>
      <point x="441" y="174"/>
      <point x="402" y="67" type="curve" smooth="yes"/>
      <point x="368" y="-29"/>
      <point x="288" y="-56"/>
      <point x="197" y="-70" type="curve" smooth="yes"/>
      <point x="131" y="-81"/>
      <point x="116" y="8"/>
    </contour>
  </outline>
</glyph>
<glyph name="onehalf" format="2">
  <advance width="940"/>
  <unicode hex="00BD"/>
  <outline>
    <contour>
      <point x="191" y="541" type="curve" smooth="yes"/>
      <point x="337" y="572"/>
      <point x="355" y="521"/>
      <point x="355" y="432" type="curve" smooth="yes"/>
      <point x="355" y="333"/>
      <point x="355" y="256"/>
      <point x="355" y="191" type="curve" smooth="yes"/>
      <point x="355" y="124"/>
      <point x="265" y="124"/>
      <point x="265" y="191" type="curve" smooth="yes"/>
      <point x="265" y="288"/>
      <point x="265" y="366"/>
      <point x="265" y="432" type="curve" smooth="yes"/>
      <point x="265" y="467"/>
      <point x="267" y="465"/>
      <point x="209" y="453" type="curve" smooth="yes"/>
      <point x="143" y="439"/>
      <point x="125" y="527"/>
    </contour>
    <contour>
      <point x="770" y="496" type="curve" smooth="yes"/>
      <point x="394" y="-104" type="line" smooth="yes"/>
      <point x="358" y="-161"/>
      <point x="282" y="-113"/>
      <point x="318" y="-56" type="curve" smooth="yes"/>
      <point x="694" y="544" type="line" smooth="yes"/>
      <point x="730" y="601"/>
      <point x="806" y="553"/>
    </contour>
    <contour>
      <point x="962" y="-116" type="curve" smooth="yes"/>
      <point x="923" y="-116"/>
      <point x="892" y="-116"/>
      <point x="866" y="-116" type="curve" smooth="yes"/>
      <point x="704" y="-116"/>
      <point x="669" y="-53"/>
      <point x="791" y="43" type="curve" smooth="yes"/>
      <point x="843" y="84"/>
      <point x="903" y="134"/>
      <point x="903" y="162" type="curve" smooth="yes"/>
      <point x="903" y="213"/>
      <point x="822" y="224"/>
      <point x="766" y="190" type="curve" smooth="yes"/>
      <point x="708" y="156"/>
      <point x="662" y="233"/>
      <point x="720" y="268" type="curve" smooth="yes"/>
      <point x="847" y="343"/>
      <point x="993" y="278"/>
      <point x="993" y="162" type="curve" smooth="yes"/>
      <point x="993" y="104"/>
      <point x="953" y="55"/>
      <point x="847" y="-27" type="curve" smooth="yes"/>
      <point x="840" y="-32"/>
      <point x="857" y="-26"/>
      <point x="866" y="-26" type="curve" smooth="yes"/>
      <point x="905" y="-26"/>
      <point x="936" y="-26"/>
      <point x="962" y="-26" type="curve" smooth="yes"/>
      <point x="1030" y="-26"/>
      <point x="1030" y="-116"/>
    </contour>
  </outline>
</glyph>
<glyph name="ae" format="2">
  <advance width="938"/>
  <unicode hex="00E6"/>
  <outline>
    <contour>
      <point x="519" y="458" type="curve" smooth="yes"/>
      <point x="519" y="403"/>
      <point x="519" y="345"/>
      <point x="519" y="244" type="curve" smooth="yes"/>
      <point x="519" y="82"/>
      <point x="513" y="-79"/>
      <point x="405" y="-118" type="curve" smooth="yes"/>
      <point x="297" y="-156"/>
      <point x="159" y="-35"/>
      <point x="159" y="129" type="curve" smooth="yes"/>
      <point x="159" y="280"/>
      <point x="262" y="388"/>
      <point x="399" y="388" type="curve" smooth="yes"/>
      <point x="535" y="388"/>
      <point x="639" y="285"/>
      <point x="639" y="134" type="curve" smooth="yes"/>
      <point x="639" y="23"/>
      <point x="706" y="-41"/>
      <point x="799" y="-41" type="curve" smooth="yes"/>
      <point x="843" y="-41"/>
      <point x="891" y="-27"/>
      <point x="939" y="-1" type="curve" smooth="yes"/>
      <point x="998" y="32"/>
      <point x="1042" y="-47"/>
      <point x="983" y="-79" type="curve" smooth="yes"/>
      <point x="919" y="-115"/>
      <point x="857" y="-131"/>
      <point x="799" y="-131" type="curve" smooth="yes"/>
      <point x="660" y="-131"/>
      <point x="549" y="-31"/>
      <point x="549" y="134" type="curve" smooth="yes"/>
      <point x="549" y="233"/>
      <point x="487" y="298"/>
      <point x="399" y="298" type="curve" smooth="yes"/>
      <point x="310" y="298"/>
      <point x="249" y="228"/>
      <point x="249" y="129" type="curve" smooth="yes"/>
      <point x="249" y="45"/>
      <point x="320" y="-53"/>
      <point x="375" y="-34" type="curve" smooth="yes"/>
      <point x="429" y="-14"/>
      <point x="429" y="162"/>
      <point x="429" y="244" type="curve" smooth="yes"/>
      <point x="429" y="394"/>
      <point x="429" y="421"/>
      <point x="429" y="458" type="curve" smooth="yes"/>
      <point x="429" y="526"/>
      <point x="519" y="526"/>
    </contour>
    <contour>
      <point x="660" y="202" type="curve" smooth="yes"/>
      <point x="765" y="174"/>
      <point x="802" y="174"/>
      <point x="880" y="174" type="curve" smooth="yes"/>
      <point x="919" y="174"/>
      <point x="927" y="182"/>
      <point x="916" y="212" type="curve" smooth="yes"/>
      <point x="895" y="270"/>
      <point x="852" y="293"/>
      <point x="773" y="309" type="curve" smooth="yes"/>
      <point x="667" y="331"/>
      <point x="519" y="340"/>
      <point x="519" y="238" type="curve" smooth="yes"/>
      <point x="519" y="88"/>
      <point x="519" y="75"/>
      <point x="519" y="40" type="curve" smooth="yes"/>
      <point x="519" y="-28"/>
      <point x="429" y="-27"/>
      <point x="429" y="40" type="curve" smooth="yes"/>
      <point x="429" y="92"/>
      <point x="429" y="137"/>
      <point x="429" y="238" type="curve" smooth="yes"/>
      <point x="429" y="410"/>
      <point x="613" y="434"/>
      <point x="791" y="397" type="curve" smooth="yes"/>
      <point x="907" y="373"/>
      <point x="969" y="328"/>
      <point x="1000" y="244" type="curve" smooth="yes"/>
      <point x="1032" y="159"/>
      <point x="991" y="84"/>
      <point x="880" y="84" type="curve" smooth="yes"/>
      <point x="796" y="84"/>
      <point x="751" y="84"/>
      <point x="636" y="116" type="curve" smooth="yes"/>
      <point x="571" y="133"/>
      <point x="595" y="220"/>
    </contour>
  </outline>
</glyph>
<glyph name="divide" format="2">
  <advance width="540"/>
  <unicode hex="00F7"/>
  <outline>
    <contour>
      <point x="212" y="231" type="curve" smooth="yes"/>
      <point x="365" y="188"/>
      <point x="490" y="182"/>
      <point x="555" y="225" type="curve" smooth="yes"/>
      <point x="611" y="263"/>
      <point x="661" y="188"/>
      <point x="605" y="151" type="curve" smooth="yes"/>
      <point x="521" y="95"/>
      <point x="384" y="89"/>
      <point x="188" y="145" type="curve" smooth="yes"/>
      <point x="123" y="163"/>
      <point x="147" y="250"/>
    </contour>
    <contour>
      <point x="390" y="295" type="curve" smooth="yes"/>
      <point x="306" y="308"/>
      <point x="306" y="416"/>
      <point x="390" y="429" type="curve" smooth="yes"/>
      <point x="457" y="438"/>
      <point x="470" y="349"/>
      <point x="404" y="339" type="curve" smooth="yes"/>
      <point x="401" y="339"/>
      <point x="401" y="385"/>
      <point x="404" y="385" type="curve" smooth="yes"/>
      <point x="470" y="375"/>
      <point x="457" y="286"/>
    </contour>
    <contour>
      <point x="390" y="-51" type="curve" smooth="yes"/>
      <point x="306" y="-38"/>
      <point x="306" y="70"/>
      <point x="390" y="83" type="curve" smooth="yes"/>
      <point x="457" y="92"/>
      <point x="470" y="3"/>
      <point x="404" y="-7" type="curve" smooth="yes"/>
      <point x="401" y="-7"/>
      <point x="401" y="39"/>
      <point x="404" y="39" type="curve" smooth="yes"/>
      <point x="470" y="29"/>
      <point x="457" y="-60"/>
    </contour>
  </outline>
</glyph>
<glyph name="thorn" format="2">
  <advance width="584"/>
  <unicode hex="00FE"/>
  <outline>
    <contour>
      <point x="181" y="-175" type="curve" smooth="yes"/>
      <point x="186" y="-172"/>
      <point x="186" y="-118"/>
      <point x="186" y="-111" type="curve" smooth="yes"/>
      <point x="186" y="-14"/>
      <point x="186" y="65"/>
      <point x="186" y="130" type="curve" smooth="yes"/>
      <point x="186" y="281"/>
      <point x="287" y="388"/>
      <point x="425" y="388" type="curve" smooth="yes"/>
      <point x="562" y="388"/>
      <point x="666" y="279"/>
      <point x="666" y="128" type="curve" smooth="yes"/>
      <point x="666" y="-25"/>
      <point x="523" y="-105"/>
      <point x="345" y="-60" type="curve" smooth="yes"/>
      <point x="157" y="-12"/>
      <point x="38" y="142"/>
      <point x="79" y="252" type="curve" smooth="yes"/>
      <point x="99" y="304"/>
      <point x="203" y="409"/>
      <point x="177" y="577" type="curve" smooth="yes"/>
      <point x="166" y="644"/>
      <point x="255" y="658"/>
      <point x="265" y="591" type="curve" smooth="yes"/>
      <point x="299" y="382"/>
      <point x="187" y="284"/>
      <point x="163" y="220" type="curve" smooth="yes"/>
      <point x="139" y="156"/>
      <point x="256" y="55"/>
      <point x="367" y="28" type="curve" smooth="yes"/>
      <point x="480" y="-1"/>
      <point x="576" y="32"/>
      <point x="576" y="128" type="curve" smooth="yes"/>
      <point x="576" y="227"/>
      <point x="514" y="298"/>
      <point x="425" y="298" type="curve" smooth="yes"/>
      <point x="335" y="298"/>
      <point x="276" y="229"/>
      <point x="276" y="130" type="curve" smooth="yes"/>
      <point x="276" y="33"/>
      <point x="276" y="-46"/>
      <point x="276" y="-111" type="curve" smooth="yes"/>
      <point x="276" y="-183"/>
      <point x="269" y="-231"/>
      <point x="221" y="-255" type="curve" smooth="yes"/>
      <point x="161" y="-285"/>
      <point x="121" y="-205"/>
    </contour>
  </outline>
</glyph>
<glyph name="OE" format="2">
  <advance width="933"/>
  <unicode hex="0152"/>
  <outline>
    <contour>
      <point x="948" y="256" type="curve" smooth="yes"/>
      <point x="942" y="199"/>
      <point x="896" y="185"/>
      <point x="832" y="185" type="curve" smooth="yes"/>
      <point x="792" y="185"/>
      <point x="760" y="185"/>
      <point x="733" y="185" type="curve" smooth="yes"/>
      <point x="640" y="185"/>
      <point x="610" y="207"/>
      <point x="610" y="298" type="curve" smooth="yes"/>
      <point x="610" y="324"/>
      <point x="610" y="341"/>
      <point x="610" y="356" type="curve" smooth="yes"/>
      <point x="610" y="365"/>
      <point x="580" y="484"/>
      <point x="580" y="476" type="curve" smooth="yes"/>
      <point x="580" y="368"/>
      <point x="580" y="168"/>
      <point x="580" y="125" type="curve" smooth="yes"/>
      <point x="580" y="92"/>
      <point x="586" y="90"/>
      <point x="619" y="90" type="curve" smooth="yes"/>
      <point x="684" y="90"/>
      <point x="710" y="90"/>
      <point x="748" y="90" type="curve" smooth="yes"/>
      <point x="926" y="90"/>
      <point x="1046" y="-120"/>
      <point x="868" y="-120" type="curve" smooth="yes"/>
      <point x="710" y="-120"/>
      <point x="583" y="-120"/>
      <point x="478" y="-120" type="curve" smooth="yes"/>
      <point x="293" y="-120"/>
      <point x="165" y="22"/>
      <point x="165" y="219" type="curve" smooth="yes"/>
      <point x="165" y="417"/>
      <point x="291" y="560"/>
      <point x="477" y="560" type="curve" smooth="yes"/>
      <point x="620" y="560"/>
      <point x="736" y="560"/>
      <point x="832" y="560" type="curve" smooth="yes"/>
      <point x="835" y="560"/>
      <point x="880" y="557"/>
      <point x="880" y="559" type="curve" smooth="yes"/>
      <point x="902" y="623"/>
      <point x="987" y="595"/>
      <point x="966" y="531" type="curve" smooth="yes"/>
      <point x="949" y="480"/>
      <point x="902" y="470"/>
      <point x="832" y="470" type="curve" smooth="yes"/>
      <point x="688" y="470"/>
      <point x="573" y="470"/>
      <point x="477" y="470" type="curve" smooth="yes"/>
      <point x="339" y="470"/>
      <point x="255" y="365"/>
      <point x="255" y="219" type="curve" smooth="yes"/>
      <point x="255" y="74"/>
      <point x="341" y="-30"/>
      <point x="478" y="-30" type="curve" smooth="yes"/>
      <point x="635" y="-30"/>
      <point x="762" y="-30"/>
      <point x="868" y="-30" type="curve" smooth="yes"/>
      <point x="876" y="-30"/>
      <point x="756" y="0"/>
      <point x="748" y="0" type="curve" smooth="yes"/>
      <point x="692" y="0"/>
      <point x="662" y="0"/>
      <point x="619" y="0" type="curve" smooth="yes"/>
      <point x="534" y="0"/>
      <point x="490" y="41"/>
      <point x="490" y="125" type="curve" smooth="yes"/>
      <point x="490" y="190"/>
      <point x="490" y="403"/>
      <point x="490" y="476" type="curve" smooth="yes"/>
      <point x="490" y="648"/>
      <point x="700" y="548"/>
      <point x="700" y="356" type="curve" smooth="yes"/>
      <point x="700" y="334"/>
      <point x="700" y="315"/>
      <point x="700" y="298" type="curve" smooth="yes"/>
      <point x="700" y="269"/>
      <point x="703" y="275"/>
      <point x="733" y="275" type="curve" smooth="yes"/>
      <point x="773" y="275"/>
      <point x="805" y="275"/>
      <point x="832" y="275" type="curve" smooth="yes"/>
      <point x="835" y="275"/>
      <point x="858" y="262"/>
      <point x="858" y="264" type="curve" smooth="yes"/>
      <point x="865" y="332"/>
      <point x="954" y="323"/>
    </contour>
  </outline>
</glyph>
<glyph name="emdash" format="2">
  <advance width="805"/>
  <unicode hex="2014"/>
  <outline>
    <contour>
      <point x="818" y="191" type="curve" smooth="yes"/>
      <point x="787" y="158"/>
      <point x="742" y="143"/>
      <point x="658" y="143" type="curve" smooth="yes"/>
      <point x="557" y="143"/>
      <point x="461" y="143"/>
      <point x="393" y="143" type="curve" smooth="yes"/>
      <point x="321" y="143"/>
      <point x="251" y="153"/>
      <point x="176" y="180" type="curve" smooth="yes"/>
      <point x="112" y="202"/>
      <point x="143" y="287"/>
      <point x="206" y="264" type="curve" smooth="yes"/>
      <point x="271" y="241"/>
      <point x="331" y="233"/>
      <point x="393" y="233" type="curve" smooth="yes"/>
      <point x="494" y="233"/>
      <point x="590" y="233"/>
      <point x="658" y="233" type="curve" smooth="yes"/>
      <point x="701" y="233"/>
      <point x="738" y="237"/>
      <point x="754" y="253" type="curve" smooth="yes"/>
      <point x="800" y="302"/>
      <point x="865" y="240"/>
    </contour>
  </outline>
</glyph>
<glyph name="quotedblright" format="2">
  <advance width="474"/>
  <unicode hex="201D"/>
  <outline>
    <contour>
      <point x="196" y="349" type="curve" smooth="yes"/>
      <point x="221" y="391"/>
      <point x="245" y="464"/>
      <point x="219" y="488" type="curve" smooth="yes"/>
      <point x="169" y="533"/>
      <point x="229" y="600"/>
      <point x="279" y="554" type="curve" smooth="yes"/>
      <point x="337" y="502"/>
      <point x="330" y="400"/>
      <point x="274" y="303" type="curve" smooth="yes"/>
      <point x="240" y="245"/>
      <point x="162" y="290"/>
    </contour>
    <contour>
      <point x="396" y="349" type="curve" smooth="yes"/>
      <point x="421" y="391"/>
      <point x="445" y="464"/>
      <point x="419" y="488" type="curve" smooth="yes"/>
      <point x="369" y="533"/>
      <point x="429" y="600"/>
      <point x="479" y="554" type="curve" smooth="yes"/>
      <point x="537" y="502"/>
      <point x="530" y="400"/>
      <point x="474" y="303" type="curve" smooth="yes"/>
      <point x="440" y="245"/>
      <point x="362" y="290"/>
    </contour>
  </outline>
</glyph>
<glyph name="bullet" format="2">
  <advance width="552"/>
  <unicode hex="2022"/>
  <outline>
    <contour>
      <point x="277" y="132" type="curve" smooth="yes"/>
      <point x="178" y="132"/>
      <point x="98" y="211"/>
      <point x="98" y="308" type="curve" smooth="yes"/>
      <point x="98" y="402"/>
      <point x="177" y="482"/>
      <point x="277" y="482" type="curve" smooth="yes"/>
      <point x="374" y="482"/>
      <point x="454" y="402"/>
      <point x="454" y="308" type="curve" smooth="yes"/>
      <point x="454" y="211"/>
      <point x="374" y="132"/>
    </contour>
    <contour>
      <point x="277" y="222" type="curve" smooth="yes"/>
      <point x="324" y="222"/>
      <point x="364" y="261"/>
      <point x="364" y="308" type="curve" smooth="yes"/>
      <point x="364" y="354"/>
      <point x="324" y="392"/>
      <point x="277" y="392" type="curve" smooth="yes"/>
      <point x="229" y="392"/>
      <point x="188" y="354"/>
      <point x="188" y="308" type="curve" smooth="yes"/>
      <point x="188" y="260"/>
      <point x="228" y="222"/>
    </contour>
  </outline>
</glyph>
<glyph name="four.superior" format="2">
  <advance width="434"/>
  <unicode hex="2074"/>
  <outline>
    <contour>
      <point x="379" y="339" type="curve" smooth="yes"/>
      <point x="315" y="339"/>
      <point x="233" y="359"/>
      <point x="176" y="359" type="curve" smooth="yes"/>
      <point x="71" y="359"/>
      <point x="72" y="371"/>
      <point x="125" y="466" type="curve" smooth="yes"/>
      <point x="139" y="492"/>
      <point x="138" y="518"/>
      <point x="142" y="554" type="curve" smooth="yes"/>
      <point x="151" y="624"/>
      <point x="207" y="651"/>
      <point x="278" y="629" type="curve" smooth="yes"/>
      <point x="333" y="612"/>
      <point x="446" y="546"/>
      <point x="446" y="470" type="curve" smooth="yes"/>
      <point x="446" y="426"/>
      <point x="446" y="411"/>
      <point x="446" y="395" type="curve" smooth="yes"/>
      <point x="446" y="321"/>
      <point x="446" y="247"/>
      <point x="446" y="191" type="curve" smooth="yes"/>
      <point x="446" y="124"/>
      <point x="356" y="124"/>
      <point x="356" y="191" type="curve" smooth="yes"/>
      <point x="356" y="274"/>
      <point x="356" y="345"/>
      <point x="356" y="395" type="curve" smooth="yes"/>
      <point x="356" y="419"/>
      <point x="356" y="441"/>
      <point x="356" y="470" type="curve" smooth="yes"/>
      <point x="356" y="491"/>
      <point x="267" y="538"/>
      <point x="252" y="543" type="curve" smooth="yes"/>
      <point x="245" y="545"/>
      <point x="233" y="550"/>
      <point x="232" y="542" type="curve" smooth="yes"/>
      <point x="224" y="486"/>
      <point x="226" y="465"/>
      <point x="203" y="422" type="curve" smooth="yes"/>
      <point x="201" y="418"/>
      <point x="171" y="449"/>
      <point x="176" y="449" type="curve" smooth="yes"/>
      <point x="241" y="449"/>
      <point x="323" y="429"/>
      <point x="379" y="429" type="curve" smooth="yes"/>
      <point x="447" y="429"/>
      <point x="447" y="339"/>
    </contour>
  </outline>
</glyph>
<glyph name="N" format="2">
  <advance width="698"/>
  <outline>
    <contour>
      <point x="85.02094216787933" y="39.99069900731972" type="curve" smooth="yes"/>
      <point x="85.02417476406461" y="53.8767076786119"/>
      <point x="85.02617768487467" y="68.9999293249185"/>
      <point x="85.02617969455437" y="134.97382333599026" type="curve" smooth="yes"/>
      <point x="85.02619233617716" y="549.9738170151788" type="line" smooth="yes"/>
      <point x="85.02619753068261" y="720.4993699364965"/>
      <point x="146.26351477250574" y="748.1118558161961"/>
      <point x="255.04705200362122" y="579.0563507648898" type="curve" smooth="yes"/>
      <point x="531.0779844316626" y="149.00819919757825" type="line" smooth="yes"/>
      <point x="536.3640302067373" y="140.81884813838414"/>
      <point x="513.0261726115152" y="116.45136909632758"/>
      <point x="513.0261728711241" y="124.97382348829896" type="curve" smooth="yes"/>
      <point x="513.0261855127469" y="539.9738171674876" type="line" smooth="yes"/>
      <point x="513.0261874378999" y="603.1728658918897"/>
      <point x="513.0249987821612" y="626.2671161500565"/>
      <point x="513.0209547505225" y="639.9642878224938" type="curve" smooth="yes"/>
      <point x="512.9988113206994" y="714.9642845536172"/>
      <point x="612.9988069621972" y="714.9938091267148"/>
      <point x="613.0209503920204" y="639.9938123955915" type="curve" smooth="yes"/>
      <point x="613.0245807239455" y="627.6978453892231"/>
      <point x="613.0261872409592" y="596.7076739671995"/>
      <point x="613.0261855127469" y="539.9738141213134" type="curve" smooth="yes"/>
      <point x="613.0261728711241" y="124.97382044212475" type="line" smooth="yes"/>
      <point x="613.0261677539515" y="-43.01304253864524"/>
      <point x="552.5400368633221" y="-68.64207354017975"/>
      <point x="446.9220035054877" y="94.9918047015247" type="curve" smooth="yes"/>
      <point x="170.9529705380677" y="524.9436400356641" type="line" smooth="yes"/>
      <point x="165.37189447478568" y="533.6169343283783"/>
      <point x="185.0261926026782" y="558.7225282120899"/>
      <point x="185.0261923361771" y="549.9738139690046" type="curve" smooth="yes"/>
      <point x="185.02617969455432" y="134.97382028981608" type="line" smooth="yes"/>
      <point x="185.02617824249901" y="87.30565679251804"/>
      <point x="185.02327510816775" y="50.00048698503891"/>
      <point x="185.02093945819914" y="39.96741948781086" type="curve" smooth="yes"/>
      <point x="185.00347981856748" y="-35.032578479929"/>
      <point x="85.00348252824766" y="-35.00929896042014"/>
    </contour>
  </outline>
</glyph>
<glyph name="O" format="2">
  <advance width="736"/>
  <outline>
    <contour>
      <point x="416.8992204187211" y="95.48854080108978" type="curve" smooth="yes"/>
      <point x="458.36186213680037" y="105.84880905693916"/>
      <point x="501.4306725860357" y="128.22248379768652"/>
      <point x="528.5480890909014" y="160.9024460782743" type="curve" smooth="yes"/>
      <point x="565.7414321835026" y="205.72519123679913"/>
      <point x="586.0261764390666" y="269.1024662189281"/>
      <point x="586.0261786283934" y="340.97382019843093" type="curve" smooth="yes"/>
      <point x="586.0261830457239" y="485.98622858252014"/>
      <point x="502.20433980590417" y="589.9738141213134"/>
      <point x="368.0261918183275" y="589.9738141213134" type="curve" smooth="yes"/>
      <point x="239.29815139981474" y="589.9738141213134"/>
      <point x="150.0261911940936" y="485.4814238156194"/>
      <point x="150.02618679214012" y="340.9738171522567" type="curve" smooth="yes"/>
      <point x="150.02618460609585" y="269.21021630919154"/>
      <point x="171.9884886933657" y="206.08216578289617"/>
      <point x="210.07369275706026" y="161.41433230392045" type="curve" smooth="yes"/>
      <point x="238.86008789118625" y="127.65250967693146"/>
      <point x="282.5526228808796" y="104.3669650829482"/>
      <point x="325.0578030204169" y="94.74639938955119" type="curve" smooth="yes"/>
      <point x="398.2075043735412" y="78.18979370031886"/>
      <point x="376.1320301212316" y="-19.343141437180265"/>
      <point x="302.98232876810727" y="-2.7865357479479442" type="curve" smooth="yes"/>
      <point x="239.52914730778178" y="11.575372581579916"/>
      <point x="176.95197739545412" y="46.132512106821345"/>
      <point x="133.97866571819617" y="96.5333115046563" type="curve" smooth="yes"/>
      <point x="81.88949697140814" y="157.6255485778397"/>
      <point x="50.02618380228535" y="242.82267709467155"/>
      <point x="50.02618679214017" y="340.9738201984308" type="curve" smooth="yes"/>
      <point x="50.02619298769222" y="544.3617940289901"/>
      <point x="186.8472496129443" y="689.9738141213134"/>
      <point x="368.0261918183275" y="689.9738141213134" type="curve" smooth="yes"/>
      <point x="555.7461475886404" y="689.9738141213134"/>
      <point x="686.0261848083945" y="543.8512848791785"/>
      <point x="686.0261786283934" y="340.9738171522566" type="curve" smooth="yes"/>
      <point x="686.026175641526" y="242.92075162728867"/>
      <point x="656.246606082332" y="158.1962311349493"/>
      <point x="605.504257351967" y="97.04519773030246" type="curve" smooth="yes"/>
      <point x="564.6360152303655" y="47.79372826350332"/>
      <point x="503.62861874740986" y="14.085124052836932"/>
      <point x="441.1409079276262" y="-1.5286771899482403" type="curve" smooth="yes"/>
      <point x="368.37799443434767" y="-19.70994282162712"/>
      <point x="344.13630692544257" y="77.3072751694109"/>
    </contour>
  </outline>
</glyph>
<glyph name="macron.cap" format="2">
  <advance width="490"/>
  <outline>
    <contour>
      <point x="490" y="666" type="curve" smooth="yes"/>
      <point x="240" y="666" type="line" smooth="yes"/>
      <point x="173" y="666"/>
      <point x="173" y="756"/>
      <point x="240" y="756" type="curve" smooth="yes"/>
      <point x="490" y="756" type="line" smooth="yes"/>
      <point x="558" y="756"/>
      <point x="558" y="666"/>
    </contour>
  </outline>
</glyph>
<glyph name="t.alt" format="2">
  <advance width="336"/>
  <outline>
    <contour>
      <point x="354" y="333" type="curve" smooth="yes"/>
      <point x="329" y="333"/>
      <point x="300" y="341"/>
      <point x="261" y="356" type="curve" smooth="yes"/>
      <point x="256" y="358"/>
      <point x="208" y="382"/>
      <point x="207" y="380" type="curve" smooth="yes"/>
      <point x="197" y="356"/>
      <point x="175" y="333"/>
      <point x="132" y="333" type="curve" smooth="yes"/>
      <point x="65" y="333"/>
      <point x="65" y="423"/>
      <point x="132" y="423" type="curve" smooth="yes"/>
      <point x="134" y="423"/>
      <point x="124" y="414"/>
      <point x="125" y="416" type="curve" smooth="yes"/>
      <point x="143" y="459"/>
      <point x="192" y="479"/>
      <point x="293" y="440" type="curve" smooth="yes"/>
      <point x="315" y="432"/>
      <point x="340" y="423"/>
      <point x="354" y="423" type="curve" smooth="yes"/>
      <point x="422" y="423"/>
      <point x="422" y="333"/>
    </contour>
    <contour>
      <point x="462" y="-105" type="curve" smooth="yes"/>
      <point x="352" y="-159"/>
      <point x="238" y="-108"/>
      <point x="238" y="19" type="curve" smooth="yes"/>
      <point x="238" y="183"/>
      <point x="238" y="245"/>
      <point x="238" y="343" type="curve" smooth="yes"/>
      <point x="238" y="391"/>
      <point x="235" y="428"/>
      <point x="226" y="472" type="curve" smooth="yes"/>
      <point x="212" y="538"/>
      <point x="300" y="556"/>
      <point x="314" y="490" type="curve" smooth="yes"/>
      <point x="325" y="440"/>
      <point x="328" y="397"/>
      <point x="328" y="343" type="curve" smooth="yes"/>
      <point x="328" y="197"/>
      <point x="328" y="129"/>
      <point x="328" y="19" type="curve" smooth="yes"/>
      <point x="328" y="-39"/>
      <point x="372" y="-49"/>
      <point x="422" y="-25" type="curve" smooth="yes"/>
      <point x="483" y="5"/>
      <point x="522" y="-76"/>
    </contour>
  </outline>
</glyph>
